<?xml version="1.0" encoding="us-ascii" standalone="no"?><svg xmlns="http://www.w3.org/2000/svg" xmlns:xlink="http://www.w3.org/1999/xlink" contentStyleType="text/css" height="318px" preserveAspectRatio="none" style="width:850px;height:318px;background:#FFFFFF;" version="1.1" viewBox="0 0 850 318" width="850px" zoomAndPan="magnify"><defs/><g><!--cluster UA--><g id="cluster_UA"><path d="M624.5,31 L713.5,31 A3.75,3.75 0 0 1 716,33.5 L723,54.6094 L840.5,54.6094 A2.5,2.5 0 0 1 843,57.1094 L843,308.5 A2.5,2.5 0 0 1 840.5,311 L624.5,311 A2.5,2.5 0 0 1 622,308.5 L622,33.5 A2.5,2.5 0 0 1 624.5,31 " fill="none" style="stroke:#000000;stroke-width:1.5;"/><line style="stroke:#000000;stroke-width:1.5;" x1="622" x2="723" y1="54.6094" y2="54.6094"/><text fill="#000000" font-family="sans-serif" font-size="14" font-weight="bold" lengthAdjust="spacing" textLength="88" x="626" y="47.5332">User actions</text></g><!--cluster Editors--><g id="cluster_Editors"><path d="M8.5,6 L94.5,6 A3.75,3.75 0 0 1 97,8.5 L104,29.6094 L179.5,29.6094 A2.5,2.5 0 0 1 182,32.1094 L182,274.5 A2.5,2.5 0 0 1 179.5,277 L8.5,277 A2.5,2.5 0 0 1 6,274.5 L6,8.5 A2.5,2.5 0 0 1 8.5,6 " fill="none" style="stroke:#000000;stroke-width:1.5;"/><line style="stroke:#000000;stroke-width:1.5;" x1="6" x2="104" y1="29.6094" y2="29.6094"/><text fill="#000000" font-family="sans-serif" font-size="14" font-weight="bold" lengthAdjust="spacing" textLength="85" x="10" y="22.5332">Szerkeszt&#337;k</text></g><g id="elem_UnD"><ellipse cx="732.5408" cy="181.2082" fill="#F1F1F1" rx="86.5408" ry="19.7082" style="stroke:#181818;stroke-width:0.5;"/><text fill="#000000" font-family="sans-serif" font-size="14" lengthAdjust="spacing" textLength="130" x="667.5408" y="184.9367">Visszavon&#225;s (Ctrl+Z)</text></g><g id="elem_R"><ellipse cx="732.457" cy="269.7914" fill="#F1F1F1" rx="69.457" ry="16.2914" style="stroke:#181818;stroke-width:0.5;"/><text fill="#000000" font-family="sans-serif" font-size="14" lengthAdjust="spacing" textLength="86" x="686.457" y="274.308">Ism&#233;t (Ctrl+Y)</text></g><g id="elem_D"><ellipse cx="732.5887" cy="110.0177" fill="#F1F1F1" rx="68.0887" ry="16.0177" style="stroke:#181818;stroke-width:0.5;"/><text fill="#000000" font-family="sans-serif" font-size="14" lengthAdjust="spacing" textLength="82" x="688.5887" y="114.5343">K&#233;p let&#246;lt&#233;se</text></g><!--entity P--><g id="elem_P"><rect fill="#F1F1F1" height="37.6094" rx="2.5" ry="2.5" style="stroke:#181818;stroke-width:0.5;" width="92" x="48" y="69"/><text fill="#000000" font-family="sans-serif" font-size="14" lengthAdjust="spacing" textLength="72" x="58" y="93.5332">Preprocess</text></g><!--entity F--><g id="elem_F"><rect fill="#F1F1F1" height="37.6094" rx="2.5" ry="2.5" style="stroke:#181818;stroke-width:0.5;" width="110" x="39" y="142"/><text fill="#000000" font-family="sans-serif" font-size="14" lengthAdjust="spacing" textLength="90" x="49" y="166.5332">Find Contours</text></g><!--entity E--><g id="elem_E"><rect fill="#F1F1F1" height="37.6094" rx="2.5" ry="2.5" style="stroke:#181818;stroke-width:0.5;" width="128" x="30" y="215"/><text fill="#000000" font-family="sans-serif" font-size="14" lengthAdjust="spacing" textLength="108" x="40" y="239.5332">Erode Coastlines</text></g><g id="elem_U"><ellipse cx="443.457" cy="45.7914" fill="#F1F1F1" rx="69.457" ry="16.2914" style="stroke:#181818;stroke-width:0.5;"/><text fill="#000000" font-family="sans-serif" font-size="14" lengthAdjust="spacing" textLength="86" x="397.457" y="50.308">K&#233;p felt&#246;lt&#233;se</text></g><!--entity User--><g id="elem_User"><ellipse cx="275" cy="130.5" fill="#F1F1F1" rx="8" ry="8" style="stroke:#181818;stroke-width:0.5;"/><path d="M275,138.5 L275,165.5 M262,146.5 L288,146.5 M275,165.5 L262,180.5 M275,165.5 L288,180.5 " fill="none" style="stroke:#181818;stroke-width:0.5;"/><text fill="#000000" font-family="sans-serif" font-size="14" lengthAdjust="spacing" textLength="76" x="237" y="196.5332">Felhaszn&#225;l&#243;</text></g><!--link User to U--><g id="link_User_U"><path d="M313.3,121.75 C322.56,113.05 332.77,104.27 343,97 C363.41,82.49 383.0602,72.1598 402.9502,62.9998 " fill="none" id="User-to-U" style="stroke:#181818;stroke-width:1.0;"/><polygon fill="#181818" points="408.4,60.49,398.552,60.6215,403.8585,62.5815,401.8985,67.888,408.4,60.49" style="stroke:#181818;stroke-width:1.0;"/></g><!--link User to UnD--><g id="link_User_UnD"><path d="M313.28,162.64 C385.84,165.82 541.6658,172.6667 641.3958,177.0467 " fill="none" id="User-to-UnD" style="stroke:#181818;stroke-width:1.0;"/><polygon fill="#181818" points="647.39,177.31,638.5742,172.919,642.3948,177.0906,638.2232,180.9113,647.39,177.31" style="stroke:#181818;stroke-width:1.0;"/></g><!--link User to R--><g id="link_User_R"><path d="M313.28,169.92 C395.29,189.55 585.5148,235.0632 677.0448,256.9732 " fill="none" id="User-to-R" style="stroke:#181818;stroke-width:1.0;"/><polygon fill="#181818" points="682.88,258.37,675.0585,252.3847,678.0174,257.206,673.1961,260.1649,682.88,258.37" style="stroke:#181818;stroke-width:1.0;"/></g><!--link User to D--><g id="link_User_D"><path d="M313.09,146.36 C322.69,143.1 333.12,140.02 343,138 C454.15,115.32 580.4503,110.3969 658.4503,109.6569 " fill="none" id="User-to-D" style="stroke:#181818;stroke-width:1.0;"/><polygon fill="#181818" points="664.45,109.6,655.4125,105.6856,659.4502,109.6474,655.4884,113.6852,664.45,109.6" style="stroke:#181818;stroke-width:1.0;"/></g><!--reverse link E to User--><g id="link_E_User"><path d="M156.887,212.8924 C172.177,207.4024 183,203.23 198,197 C210.81,191.68 224.58,185.35 236.83,179.49 " fill="none" id="E-backto-User" style="stroke:#181818;stroke-width:1.0;"/><polygon fill="#181818" points="151.24,214.92,161.0623,215.6433,155.9458,213.2303,158.3588,208.1139,151.24,214.92" style="stroke:#181818;stroke-width:1.0;"/></g><!--reverse link F to User--><g id="link_F_User"><path d="M155.19,161 C183.59,161 211.64,161 237,161 " fill="none" id="F-backto-User" style="stroke:#181818;stroke-width:1.0;"/><polygon fill="#181818" points="149.19,161,158.19,165,154.19,161,158.19,157,149.19,161" style="stroke:#181818;stroke-width:1.0;"/></g><!--reverse link P to User--><g id="link_P_User"><path d="M145.722,104.3973 C163.912,110.5673 179.29,116.21 198,124 C210.87,129.36 224.65,135.84 236.9,141.86 " fill="none" id="P-backto-User" style="stroke:#181818;stroke-width:1.0;"/><polygon fill="#181818" points="140.04,102.47,147.2782,109.149,144.775,104.0761,149.8479,101.573,140.04,102.47" style="stroke:#181818;stroke-width:1.0;"/></g><!--link U to Editors--><g id="link_U_Editors"><path d="M374.38,43.65 C324.34,41.92 255.465,39.54 198.6225,37.5762 C195.0698,37.4535 191.5642,37.3324 188.1131,37.2132 C186.3875,37.1536 190.672,37.3016 188.9747,37.2429 " fill="none" id="U-to-Editors" style="stroke:#181818;stroke-width:1.0;stroke-dasharray:7.0,7.0;"/><polygon fill="#181818" points="182.9782,37.0358,191.8348,41.3441,187.9753,37.2084,192.111,33.3489,182.9782,37.0358" style="stroke:#181818;stroke-width:1.0;"/><text fill="#000000" font-family="sans-serif" font-size="13" lengthAdjust="spacing" textLength="53" x="248.5" y="35.4951">precedes</text></g><!--link U to UA--><g id="link_U_UA"><path d="M512.15,49.06 C533.0325,50.0075 556.9213,51.0906 581.0719,52.1853 C593.1472,52.7327 605.288,53.2829 617.1512,53.8205 C618.6341,53.8877 614.1188,53.6831 615.5923,53.7499 " fill="none" id="U-to-UA" style="stroke:#181818;stroke-width:1.0;stroke-dasharray:7.0,7.0;"/><polygon fill="#181818" points="621.5862,54.0215,612.7765,49.6182,616.5913,53.7951,612.4143,57.61,621.5862,54.0215" style="stroke:#181818;stroke-width:1.0;"/><text fill="#000000" font-family="sans-serif" font-size="13" lengthAdjust="spacing" textLength="53" x="544" y="47.4951">precedes</text></g><!--link UnD to R--><g id="link_UnD_R"><path d="M732.5,200.77 C732.5,216.53 732.5,232.36 732.5,247.26 " fill="none" id="UnD-to-R" style="stroke:#181818;stroke-width:1.0;stroke-dasharray:7.0,7.0;"/><polygon fill="#181818" points="732.5,253.26,736.5,244.26,732.5,248.26,728.5,244.26,732.5,253.26" style="stroke:#181818;stroke-width:1.0;"/><text fill="#000000" font-family="sans-serif" font-size="13" lengthAdjust="spacing" textLength="53" x="694" y="232.4951">precedes</text></g><!--SRC=[PP11QiCm44NtEiNWLKn93k1582Gsb6wCYmljJjWJHrYLZ4RkmYM7w16wzBhG2vZUgxAIDdOYqEBFF8t-V8bx2rQ34TN1GYaC5bPenLXBM712MEGXS8BWOUWRsAEqmxUxFM70MCEBcbS8GKveWFkN58nuldbduCvbYjgTvZm9eew_QJLy4YosriYxbp2Omza9lQVNeRTdwFaQsaryIPpOEbvyFNPeQgJE_dpKtbTS2giDdSoDkt9LIOJKZqeDDaONI1HSzHFVJuGgOQkLrQsvGMAFn4QNw1XELWg5ZZe2OouPRI1AK1uuTMvpENn5FYQN6sC-lULoFMPz5gLNBhEfpcRglzUEAfwfPARIqFq1gzNwRts8e77EiKGwD_BDhAPsi3Akd4shlm00]--></g></svg>