<?xml version="1.0" encoding="us-ascii" standalone="no"?><svg xmlns="http://www.w3.org/2000/svg" xmlns:xlink="http://www.w3.org/1999/xlink" contentStyleType="text/css" height="539px" preserveAspectRatio="none" style="width:1101px;height:539px;background:#FFFFFF;" version="1.1" viewBox="0 0 1101 539" width="1101px" zoomAndPan="magnify"><defs/><g><!--class Editor--><g id="elem_Editor"><rect codeLine="2" fill="#F1F1F1" height="136.0469" id="Editor" rx="2.5" ry="2.5" style="stroke:#181818;stroke-width:0.5;" width="162" x="457.5" y="7"/><ellipse cx="515.75" cy="23" fill="#B4A7E5" rx="11" ry="11" style="stroke:#181818;stroke-width:1.0;"/><path d="M516.7031,19.6406 L516.7031,26.2969 L518.4219,26.2969 Q519.0313,26.2969 519.2969,26.5313 Q519.5625,26.7656 519.5625,27.1563 Q519.5625,27.5313 519.2969,27.7656 Q519.0313,28 518.4219,28 L513.2813,28 Q512.6719,28 512.4063,27.7656 Q512.1406,27.5313 512.1406,27.1406 Q512.1406,26.7656 512.4063,26.5313 Q512.6719,26.2969 513.2813,26.2969 L515,26.2969 L515,19.6406 L513.2813,19.6406 Q512.6719,19.6406 512.4063,19.4063 Q512.1406,19.1719 512.1406,18.7813 Q512.1406,18.4063 512.4063,18.1719 Q512.6719,17.9375 513.2813,17.9375 L518.4219,17.9375 Q519.0313,17.9375 519.2969,18.1719 Q519.5625,18.4063 519.5625,18.7813 Q519.5625,19.1719 519.2969,19.4063 Q519.0313,19.6406 518.4219,19.6406 L516.7031,19.6406 Z " fill="#000000"/><text fill="#000000" font-family="sans-serif" font-size="14" font-style="italic" lengthAdjust="spacing" textLength="37" x="536.25" y="28.7285">Editor</text><line style="stroke:#181818;stroke-width:0.5;" x1="458.5" x2="618.5" y1="39" y2="39"/><rect fill="none" height="6" style="stroke:#C82930;stroke-width:1.0;" width="6" x="465.5" y="50.3047"/><text fill="#000000" font-family="sans-serif" font-size="14" lengthAdjust="spacing" textLength="122" x="477.5" y="57.5332">inputImage : cv.Mat</text><rect fill="none" height="6" style="stroke:#C82930;stroke-width:1.0;" width="6" x="465.5" y="67.9141"/><text fill="#000000" font-family="sans-serif" font-size="14" lengthAdjust="spacing" textLength="136" x="477.5" y="75.1426">currentImage : cv.Mat</text><ellipse cx="468.5" cy="88.5234" fill="none" rx="3" ry="3" style="stroke:#038048;stroke-width:1.0;"/><text fill="#000000" font-family="sans-serif" font-size="14" lengthAdjust="spacing" textLength="56" x="477.5" y="92.752">rows : int</text><ellipse cx="468.5" cy="106.1328" fill="none" rx="3" ry="3" style="stroke:#038048;stroke-width:1.0;"/><text fill="#000000" font-family="sans-serif" font-size="14" lengthAdjust="spacing" textLength="52" x="477.5" y="110.3613">cols : int</text><line style="stroke:#181818;stroke-width:0.5;" x1="458.5" x2="618.5" y1="117.4375" y2="117.4375"/><ellipse cx="468.5" cy="131.7422" fill="#84BE84" rx="3" ry="3" style="stroke:#038048;stroke-width:1.0;"/><text fill="#000000" font-family="sans-serif" font-size="14" lengthAdjust="spacing" textLength="121" x="477.5" y="135.9707">getImage() : cv.Mat</text></g><!--class Editor1--><g id="elem_Editor1"><rect codeLine="10" fill="#F1F1F1" height="153.6563" id="Editor1" rx="2.5" ry="2.5" style="stroke:#181818;stroke-width:0.5;" width="313" x="7" y="291"/><ellipse cx="136.75" cy="307" fill="#ADD1B2" rx="11" ry="11" style="stroke:#181818;stroke-width:1.0;"/><path d="M139.5156,302.875 Q139.6719,302.6563 139.8594,302.5469 Q140.0469,302.4375 140.2656,302.4375 Q140.6406,302.4375 140.875,302.7031 Q141.1094,302.9531 141.1094,303.5625 L141.1094,305.0156 Q141.1094,305.625 140.875,305.8906 Q140.6406,306.1563 140.2656,306.1563 Q139.9219,306.1563 139.7188,305.9531 Q139.5156,305.7656 139.4063,305.25 Q139.3594,304.8906 139.1719,304.7031 Q138.8438,304.3281 138.2344,304.1094 Q137.625,303.8906 137,303.8906 Q136.2344,303.8906 135.5938,304.2188 Q134.9688,304.5469 134.4688,305.2969 Q133.9844,306.0469 133.9844,307.0781 L133.9844,308.1719 Q133.9844,309.4063 134.875,310.2344 Q135.7656,311.0469 137.3594,311.0469 Q138.2969,311.0469 138.9531,310.7969 Q139.3438,310.6406 139.7656,310.2031 Q140.0313,309.9375 140.1719,309.8594 Q140.3281,309.7813 140.5313,309.7813 Q140.8594,309.7813 141.1094,310.0469 Q141.375,310.2969 141.375,310.6406 Q141.375,310.9844 141.0313,311.3906 Q140.5313,311.9688 139.7344,312.2969 Q138.6563,312.75 137.3594,312.75 Q135.8438,312.75 134.6406,312.125 Q133.6563,311.625 132.9688,310.5625 Q132.2813,309.4844 132.2813,308.2031 L132.2813,307.0469 Q132.2813,305.7188 132.8906,304.5781 Q133.5156,303.4219 134.6094,302.8125 Q135.7031,302.1875 136.9375,302.1875 Q137.6719,302.1875 138.3125,302.3594 Q138.9688,302.5156 139.5156,302.875 Z " fill="#000000"/><text fill="#000000" font-family="sans-serif" font-size="14" lengthAdjust="spacing" textLength="45" x="157.25" y="312.7285">Editor1</text><line style="stroke:#181818;stroke-width:0.5;" x1="8" x2="319" y1="323" y2="323"/><rect fill="none" height="6" style="stroke:#C82930;stroke-width:1.0;" width="6" x="15" y="334.3047"/><text fill="#000000" font-family="sans-serif" font-size="14" lengthAdjust="spacing" textLength="218" x="27" y="341.5332">denoiseMode : denoiseModeEnum</text><rect fill="none" height="6" style="stroke:#C82930;stroke-width:1.0;" width="6" x="15" y="351.9141"/><text fill="#000000" font-family="sans-serif" font-size="14" lengthAdjust="spacing" textLength="78" x="27" y="359.1426">contrast : int</text><rect fill="none" height="6" style="stroke:#C82930;stroke-width:1.0;" width="6" x="15" y="369.5234"/><text fill="#000000" font-family="sans-serif" font-size="14" lengthAdjust="spacing" textLength="121" x="27" y="376.752">contrastCentre : int</text><line style="stroke:#181818;stroke-width:0.5;" x1="8" x2="319" y1="383.8281" y2="383.8281"/><ellipse cx="18" cy="398.1328" fill="#84BE84" rx="3" ry="3" style="stroke:#038048;stroke-width:1.0;"/><text fill="#000000" font-family="sans-serif" font-size="14" lengthAdjust="spacing" textLength="287" x="27" y="402.3613">denoiseMode(to: denoiseModeEnum) : Action</text><ellipse cx="18" cy="415.7422" fill="#84BE84" rx="3" ry="3" style="stroke:#038048;stroke-width:1.0;"/><text fill="#000000" font-family="sans-serif" font-size="14" lengthAdjust="spacing" textLength="169" x="27" y="419.9707">setContrast(to: int) : Action</text><ellipse cx="18" cy="433.3516" fill="#84BE84" rx="3" ry="3" style="stroke:#038048;stroke-width:1.0;"/><text fill="#000000" font-family="sans-serif" font-size="14" lengthAdjust="spacing" textLength="212" x="27" y="437.5801">setContrastCentre(to: int) : Action</text></g><!--class Editor2--><g id="elem_Editor2"><rect codeLine="19" fill="#F1F1F1" height="329.75" id="Editor2" rx="2.5" ry="2.5" style="stroke:#181818;stroke-width:0.5;" width="366" x="355.5" y="203"/><ellipse cx="511.75" cy="219" fill="#ADD1B2" rx="11" ry="11" style="stroke:#181818;stroke-width:1.0;"/><path d="M514.5156,214.875 Q514.6719,214.6563 514.8594,214.5469 Q515.0469,214.4375 515.2656,214.4375 Q515.6406,214.4375 515.875,214.7031 Q516.1094,214.9531 516.1094,215.5625 L516.1094,217.0156 Q516.1094,217.625 515.875,217.8906 Q515.6406,218.1563 515.2656,218.1563 Q514.9219,218.1563 514.7188,217.9531 Q514.5156,217.7656 514.4063,217.25 Q514.3594,216.8906 514.1719,216.7031 Q513.8438,216.3281 513.2344,216.1094 Q512.625,215.8906 512,215.8906 Q511.2344,215.8906 510.5938,216.2188 Q509.9688,216.5469 509.4688,217.2969 Q508.9844,218.0469 508.9844,219.0781 L508.9844,220.1719 Q508.9844,221.4063 509.875,222.2344 Q510.7656,223.0469 512.3594,223.0469 Q513.2969,223.0469 513.9531,222.7969 Q514.3438,222.6406 514.7656,222.2031 Q515.0313,221.9375 515.1719,221.8594 Q515.3281,221.7813 515.5313,221.7813 Q515.8594,221.7813 516.1094,222.0469 Q516.375,222.2969 516.375,222.6406 Q516.375,222.9844 516.0313,223.3906 Q515.5313,223.9688 514.7344,224.2969 Q513.6563,224.75 512.3594,224.75 Q510.8438,224.75 509.6406,224.125 Q508.6563,223.625 507.9688,222.5625 Q507.2813,221.4844 507.2813,220.2031 L507.2813,219.0469 Q507.2813,217.7188 507.8906,216.5781 Q508.5156,215.4219 509.6094,214.8125 Q510.7031,214.1875 511.9375,214.1875 Q512.6719,214.1875 513.3125,214.3594 Q513.9688,214.5156 514.5156,214.875 Z " fill="#000000"/><text fill="#000000" font-family="sans-serif" font-size="14" lengthAdjust="spacing" textLength="45" x="532.25" y="224.7285">Editor2</text><line style="stroke:#181818;stroke-width:0.5;" x1="356.5" x2="720.5" y1="235" y2="235"/><rect fill="none" height="6" style="stroke:#C82930;stroke-width:1.0;" width="6" x="363.5" y="246.3047"/><text fill="#000000" font-family="sans-serif" font-size="14" lengthAdjust="spacing" textLength="149" x="375.5" y="253.5332">contours : cv.MatVector</text><rect fill="none" height="6" style="stroke:#C82930;stroke-width:1.0;" width="6" x="363.5" y="263.9141"/><text fill="#000000" font-family="sans-serif" font-size="14" lengthAdjust="spacing" textLength="128" x="375.5" y="271.1426">contourMap : cv.Mat</text><rect fill="none" height="6" style="stroke:#C82930;stroke-width:1.0;" width="6" x="363.5" y="281.5234"/><text fill="#000000" font-family="sans-serif" font-size="14" lengthAdjust="spacing" textLength="131" x="375.5" y="288.752">selectedContour : int</text><rect fill="none" height="6" style="stroke:#C82930;stroke-width:1.0;" width="6" x="363.5" y="299.1328"/><text fill="#000000" font-family="sans-serif" font-size="14" lengthAdjust="spacing" textLength="111" x="375.5" y="306.3613">lowThreshold : int</text><rect fill="none" height="6" style="stroke:#C82930;stroke-width:1.0;" width="6" x="363.5" y="316.7422"/><text fill="#000000" font-family="sans-serif" font-size="14" lengthAdjust="spacing" textLength="118" x="375.5" y="323.9707">highThreshold : int</text><rect fill="none" height="6" style="stroke:#C82930;stroke-width:1.0;" width="6" x="363.5" y="334.3516"/><text fill="#000000" font-family="sans-serif" font-size="14" lengthAdjust="spacing" textLength="146" x="375.5" y="341.5801">declutterThreshold : int</text><line style="stroke:#181818;stroke-width:0.5;" x1="356.5" x2="720.5" y1="348.6563" y2="348.6563"/><ellipse cx="366.5" cy="362.9609" fill="#84BE84" rx="3" ry="3" style="stroke:#038048;stroke-width:1.0;"/><text fill="#000000" font-family="sans-serif" font-size="14" lengthAdjust="spacing" textLength="206" x="375.5" y="367.1895">deleteSelectedContour() : Action</text><ellipse cx="366.5" cy="380.5703" fill="#84BE84" rx="3" ry="3" style="stroke:#038048;stroke-width:1.0;"/><text fill="#000000" font-family="sans-serif" font-size="14" lengthAdjust="spacing" textLength="204" x="375.5" y="384.7988">setLowThreshold(to: int) : Action</text><ellipse cx="366.5" cy="398.1797" fill="#84BE84" rx="3" ry="3" style="stroke:#038048;stroke-width:1.0;"/><text fill="#000000" font-family="sans-serif" font-size="14" lengthAdjust="spacing" textLength="207" x="375.5" y="402.4082">setHighThreshold(to: int) : Action</text><ellipse cx="366.5" cy="415.7891" fill="#84BE84" rx="3" ry="3" style="stroke:#038048;stroke-width:1.0;"/><text fill="#000000" font-family="sans-serif" font-size="14" lengthAdjust="spacing" textLength="236" x="375.5" y="420.0176">setDeclutterThreshold(to: int) : Action</text><ellipse cx="366.5" cy="433.3984" fill="#84BE84" rx="3" ry="3" style="stroke:#038048;stroke-width:1.0;"/><text fill="#000000" font-family="sans-serif" font-size="14" lengthAdjust="spacing" textLength="248" x="375.5" y="437.627">drawNewContour(input: cv.Mat) : Action</text><text fill="#000000" font-family="sans-serif" font-size="14" lengthAdjust="spacing" textLength="4" x="375.5" y="455.2363">&#160;</text><ellipse cx="366.5" cy="468.6172" fill="#84BE84" rx="3" ry="3" style="stroke:#038048;stroke-width:1.0;"/><text fill="#000000" font-family="sans-serif" font-size="14" lengthAdjust="spacing" textLength="278" x="375.5" y="472.8457">createContourImage(low: int, high: int) : void</text><ellipse cx="366.5" cy="486.2266" fill="#84BE84" rx="3" ry="3" style="stroke:#038048;stroke-width:1.0;"/><text fill="#000000" font-family="sans-serif" font-size="14" lengthAdjust="spacing" textLength="340" x="375.5" y="490.4551">selectContourClosestTo(clickX: int, clickY: int) : cv.Mat</text><text fill="#000000" font-family="sans-serif" font-size="14" lengthAdjust="spacing" textLength="4" x="375.5" y="508.0645">&#160;</text><rect fill="#F24D5C" height="6" style="stroke:#C82930;stroke-width:1.0;" width="6" x="363.5" y="518.4453"/><text fill="#000000" font-family="sans-serif" font-size="14" lengthAdjust="spacing" textLength="166" x="375.5" y="525.6738">createContourMap() : void</text></g><!--class Editor3--><g id="elem_Editor3"><rect codeLine="39" fill="#F1F1F1" height="118.4375" id="Editor3" rx="2.5" ry="2.5" style="stroke:#181818;stroke-width:0.5;" width="338" x="756.5" y="309"/><ellipse cx="898.75" cy="325" fill="#ADD1B2" rx="11" ry="11" style="stroke:#181818;stroke-width:1.0;"/><path d="M901.5156,320.875 Q901.6719,320.6563 901.8594,320.5469 Q902.0469,320.4375 902.2656,320.4375 Q902.6406,320.4375 902.875,320.7031 Q903.1094,320.9531 903.1094,321.5625 L903.1094,323.0156 Q903.1094,323.625 902.875,323.8906 Q902.6406,324.1563 902.2656,324.1563 Q901.9219,324.1563 901.7188,323.9531 Q901.5156,323.7656 901.4063,323.25 Q901.3594,322.8906 901.1719,322.7031 Q900.8438,322.3281 900.2344,322.1094 Q899.625,321.8906 899,321.8906 Q898.2344,321.8906 897.5938,322.2188 Q896.9688,322.5469 896.4688,323.2969 Q895.9844,324.0469 895.9844,325.0781 L895.9844,326.1719 Q895.9844,327.4063 896.875,328.2344 Q897.7656,329.0469 899.3594,329.0469 Q900.2969,329.0469 900.9531,328.7969 Q901.3438,328.6406 901.7656,328.2031 Q902.0313,327.9375 902.1719,327.8594 Q902.3281,327.7813 902.5313,327.7813 Q902.8594,327.7813 903.1094,328.0469 Q903.375,328.2969 903.375,328.6406 Q903.375,328.9844 903.0313,329.3906 Q902.5313,329.9688 901.7344,330.2969 Q900.6563,330.75 899.3594,330.75 Q897.8438,330.75 896.6406,330.125 Q895.6563,329.625 894.9688,328.5625 Q894.2813,327.4844 894.2813,326.2031 L894.2813,325.0469 Q894.2813,323.7188 894.8906,322.5781 Q895.5156,321.4219 896.6094,320.8125 Q897.7031,320.1875 898.9375,320.1875 Q899.6719,320.1875 900.3125,320.3594 Q900.9688,320.5156 901.5156,320.875 Z " fill="#000000"/><text fill="#000000" font-family="sans-serif" font-size="14" lengthAdjust="spacing" textLength="45" x="919.25" y="330.7285">Editor3</text><line style="stroke:#181818;stroke-width:0.5;" x1="757.5" x2="1093.5" y1="341" y2="341"/><line style="stroke:#181818;stroke-width:0.5;" x1="757.5" x2="1093.5" y1="349" y2="349"/><ellipse cx="767.5" cy="363.3047" fill="#84BE84" rx="3" ry="3" style="stroke:#038048;stroke-width:1.0;"/><text fill="#000000" font-family="sans-serif" font-size="14" lengthAdjust="spacing" textLength="251" x="776.5" y="367.5332">createFjords(subImage: cv.Mat) : Action</text><ellipse cx="767.5" cy="380.9141" fill="#84BE84" rx="3" ry="3" style="stroke:#038048;stroke-width:1.0;"/><text fill="#000000" font-family="sans-serif" font-size="14" lengthAdjust="spacing" textLength="289" x="776.5" y="385.1426">createSmallIslands(subImage: cv.Mat) : Action</text><ellipse cx="767.5" cy="398.5234" fill="#84BE84" rx="3" ry="3" style="stroke:#038048;stroke-width:1.0;"/><text fill="#000000" font-family="sans-serif" font-size="14" lengthAdjust="spacing" textLength="289" x="776.5" y="402.752">evenOutCoastLine(subImage: cv.Mat) : Action</text><ellipse cx="767.5" cy="416.1328" fill="#84BE84" rx="3" ry="3" style="stroke:#038048;stroke-width:1.0;"/><text fill="#000000" font-family="sans-serif" font-size="14" lengthAdjust="spacing" textLength="312" x="776.5" y="420.3613">makeCoastlineUneven(subImage: cv.Mat) : Action</text></g><!--reverse link Editor to Editor1--><g id="link_Editor_Editor1"><path codeLine="46" d="M441.9623,131.6761 C404.3623,154.3861 375.17,173.78 337.5,203 C303.22,229.59 267.93,261.79 238.17,290.6 " fill="none" id="Editor-backto-Editor1" style="stroke:#181818;stroke-width:1.0;stroke-dasharray:7.0,7.0;"/><polygon fill="none" points="457.37,122.37,438.8603,126.5402,445.0643,136.812,457.37,122.37" style="stroke:#181818;stroke-width:1.0;"/></g><!--reverse link Editor to Editor2--><g id="link_Editor_Editor2"><path codeLine="47" d="M538.5,161.13 C538.5,179.34 538.5,181.89 538.5,202.96 " fill="none" id="Editor-backto-Editor2" style="stroke:#181818;stroke-width:1.0;stroke-dasharray:7.0,7.0;"/><polygon fill="none" points="538.5,143.13,532.5,161.13,544.5,161.13,538.5,143.13" style="stroke:#181818;stroke-width:1.0;"/></g><!--reverse link Editor to Editor3--><g id="link_Editor_Editor3"><path codeLine="48" d="M635.0629,132.6035 C672.4629,155.3835 701.51,174.53 739.5,203 C783.08,235.66 829.01,276.08 864.32,308.63 " fill="none" id="Editor-backto-Editor3" style="stroke:#181818;stroke-width:1.0;stroke-dasharray:7.0,7.0;"/><polygon fill="none" points="619.69,123.24,631.9417,137.7278,638.184,127.4792,619.69,123.24" style="stroke:#181818;stroke-width:1.0;"/></g><!--SRC=[ZLJ1JkCm4BtdAqPSo8fIQSiDSK655KXqzm2BsAEnXyJ4yI3RQKMxV1073eXFgFYlTLAdE13AvkQPD_FUlB4ZjKDpmpZ2iP2Ep281_-s2r7ULEorPXh0FV3gSC1Sol386TLzk1mpDh8z9tGOugMuWmrLb-ksjzY59k6BM1WdVMmq2DKcB4n8rKNGwrbNPgY7j3BCk8daBZhrEWnt-g4lgw4FNMjKXTv9qm5jquz2jmVjEcp0hnXxaGx8D9mocJB5IkW6meY03R1vc7kqwA9QF6W6pUpj7y_fibqyEjVIOELC3o2cxXorKoySCRfSlMw3Gpki6lkDTCp5L1cwa5b9d7Jz7YyWM3x9hvo-H-tmtE_7TtctSel905ED04bkjQ7QH6xGvAT59v3BB-pC2kQgSltPzwNf32XsUTpdJFjFF8kvDopc9fMm27drGzYbQ63RxYRDMNlDSMjiYSFiC33A70Row_zwuflEWSMfDCYKfre9g2qBHM955wouevKhouYhKDeS_w-feRUrMOsQ_sxH3ylxfxIqwWd_SaX4sjTLrexbdlXXzNZAbJgrY-dzgS8hwL-N7yw_cJ6hykg9a1JPmvU6_TTrWKv4VRJKK7FmT3jj_Iqzir1FRWoJv1m00]--></g></svg>