<svg xmlns="http://www.w3.org/2000/svg" xmlns:xlink="http://www.w3.org/1999/xlink" contentStyleType="text/css" data-diagram-type="DESCRIPTION" height="631px" preserveAspectRatio="none" style="width:321px;height:631px;background:#FFFFFF;" version="1.1" viewBox="0 0 321 631" width="321px" zoomAndPan="magnify"><defs/><g><!--cluster ErodeCoastlines--><g class="cluster" data-entity="ErodeCoastlines" data-source-line="4" data-uid="ent0002" id="cluster_ErodeCoastlines"><path d="M135.06,6 L268.2944,6 A3.75,3.75 0 0 1 270.7944,8.5 L277.7944,28.2969 L311.9,28.2969 A2.5,2.5 0 0 1 314.4,30.7969 L314.4,621.5 A2.5,2.5 0 0 1 311.9,624 L135.06,624 A2.5,2.5 0 0 1 132.56,621.5 L132.56,8.5 A2.5,2.5 0 0 1 135.06,6" fill="none" style="stroke:#000000;stroke-width:1.5;"/><line style="stroke:#000000;stroke-width:1.5;" x1="132.56" x2="277.7944" y1="28.2969" y2="28.2969"/><text fill="#000000" font-family="sans-serif" font-size="14" font-weight="bold" lengthAdjust="spacing" textLength="132.2344" x="136.56" y="20.9951">Erode Coastlines</text></g><!--entity E1--><g class="entity" data-entity="E1" data-source-line="5" data-uid="ent0003" id="entity_E1"><ellipse cx="223.4777" cy="574.9953" fill="#F1F1F1" rx="56.2677" ry="32.8053" style="stroke:#181818;stroke-width:0.5;"/><text fill="#000000" font-family="sans-serif" font-size="14" lengthAdjust="spacing" textLength="66.459" x="190.2482" y="564.4973">Partvonal</text><text fill="#000000" font-family="sans-serif" font-size="14" lengthAdjust="spacing" textLength="87.377" x="179.7892" y="580.7942">automatikus</text><text fill="#000000" font-family="sans-serif" font-size="14" lengthAdjust="spacing" textLength="54.585" x="196.1852" y="597.0911">jav&#237;t&#225;sa</text></g><!--entity E2--><g class="entity" data-entity="E2" data-source-line="6" data-uid="ent0004" id="entity_E2"><ellipse cx="223.48" cy="482.9975" fill="#F1F1F1" rx="56.57" ry="24.3975" style="stroke:#181818;stroke-width:0.5;"/><text fill="#000000" font-family="sans-serif" font-size="14" lengthAdjust="spacing" textLength="51.8232" x="197.5684" y="477.0665">Fjordok</text><text fill="#000000" font-family="sans-serif" font-size="14" lengthAdjust="spacing" textLength="81.6006" x="182.6797" y="493.3634">l&#233;trehoz&#225;sa</text></g><!--entity E3--><g class="entity" data-entity="E3" data-source-line="7" data-uid="ent0005" id="entity_E3"><ellipse cx="223.4753" cy="397.9974" fill="#F1F1F1" rx="61.4753" ry="25.9474" style="stroke:#181818;stroke-width:0.5;"/><text fill="#000000" font-family="sans-serif" font-size="14" lengthAdjust="spacing" textLength="83.0566" x="181.947" y="394.639">Kis szigetek</text><text fill="#000000" font-family="sans-serif" font-size="14" lengthAdjust="spacing" textLength="81.6006" x="182.675" y="410.9358">l&#233;trehoz&#225;sa</text></g><!--entity E4--><g class="entity" data-entity="E4" data-source-line="8" data-uid="ent0006" id="entity_E4"><ellipse cx="223.4841" cy="303.9971" fill="#F1F1F1" rx="61.0841" ry="32.5671" style="stroke:#181818;stroke-width:0.5;"/><text fill="#000000" font-family="sans-serif" font-size="14" lengthAdjust="spacing" textLength="66.459" x="190.2546" y="292.5434">Partvonal</text><text fill="#000000" font-family="sans-serif" font-size="14" lengthAdjust="spacing" textLength="96.0449" x="175.4617" y="308.8402">jav&#237;t&#225;sa adott</text><text fill="#000000" font-family="sans-serif" font-size="14" lengthAdjust="spacing" textLength="64.21" x="191.3792" y="325.1371">ter&#252;leten</text></g><!--entity E5--><g class="entity" data-entity="E5" data-source-line="9" data-uid="ent0007" id="entity_E5"><ellipse cx="223.4844" cy="212.0037" fill="#F1F1F1" rx="67.8744" ry="23.9937" style="stroke:#181818;stroke-width:0.5;"/><text fill="#000000" font-family="sans-serif" font-size="14" lengthAdjust="spacing" textLength="100.7207" x="173.124" y="211.5663">T&#246;redezetts&#233;g</text><text fill="#000000" font-family="sans-serif" font-size="14" lengthAdjust="spacing" textLength="50.1895" x="198.3897" y="227.8631">&#225;ll&#237;t&#225;sa</text></g><!--entity E6--><g class="entity" data-entity="E6" data-source-line="10" data-uid="ent0008" id="entity_E6"><ellipse cx="223.4813" cy="138.0023" fill="#F1F1F1" rx="62.0613" ry="14.8123" style="stroke:#181818;stroke-width:0.5;"/><text fill="#000000" font-family="sans-serif" font-size="14" lengthAdjust="spacing" textLength="85.5176" x="180.7225" y="142.6507">Kiegyenl&#237;t&#233;s</text></g><!--entity E7--><g class="entity" data-entity="E7" data-source-line="11" data-uid="ent0009" id="entity_E7"><ellipse cx="223.4825" cy="64.9965" fill="#F1F1F1" rx="74.9225" ry="23.5665" style="stroke:#181818;stroke-width:0.5;"/><text fill="#000000" font-family="sans-serif" font-size="14" lengthAdjust="spacing" textLength="113.9824" x="166.4913" y="65.2477">Egyenetlenebb&#233;</text><text fill="#000000" font-family="sans-serif" font-size="14" lengthAdjust="spacing" textLength="32.0947" x="207.4351" y="81.5446">t&#233;tel</text></g><!--entity User3--><g class="entity" data-entity="User3" data-source-line="15" data-uid="ent0010" id="entity_User3"><ellipse cx="47.2788" cy="274.35" fill="#F1F1F1" rx="8" ry="8" style="stroke:#181818;stroke-width:0.5;"/><path d="M47.2788,282.35 L47.2788,309.35 M34.2788,290.35 L60.2788,290.35 M47.2788,309.35 L34.2788,324.35 M47.2788,309.35 L60.2788,324.35" fill="none" style="stroke:#181818;stroke-width:0.5;"/><text fill="#000000" font-family="sans-serif" font-size="14" lengthAdjust="spacing" textLength="82.5576" x="6" y="338.8451">Felhaszn&#225;l&#243;</text></g><!--link User3 to E1--><g class="link" data-entity-1="User3" data-entity-2="E1" data-source-line="17" data-uid="lnk11" id="link_User3_E1"><path d="M52.67,342.33 C59.96,390.18 78.63,472.16 124.56,525 C137.64,540.06 150.8825,548.701 168.4625,556.561" fill="none" id="User3-to-E1" style="stroke:#181818;stroke-width:1;"/><polygon fill="#181818" points="173.94,559.01,167.3565,551.6849,169.3755,556.9692,164.0912,558.9882,173.94,559.01" style="stroke:#181818;stroke-width:1;"/></g><!--link User3 to E2--><g class="link" data-entity-1="User3" data-entity-2="E2" data-source-line="18" data-uid="lnk12" id="link_User3_E2"><path d="M61.7,342.47 C73.96,372.72 94.74,414.1 124.56,441 C138.98,454.01 152.4236,461.299 169.9036,467.869" fill="none" id="User3-to-E2" style="stroke:#181818;stroke-width:1;"/><polygon fill="#181818" points="175.52,469.98,168.5027,463.0693,170.8397,468.2209,165.6881,470.5578,175.52,469.98" style="stroke:#181818;stroke-width:1;"/></g><!--link User3 to E3--><g class="link" data-entity-1="User3" data-entity-2="E3" data-source-line="19" data-uid="lnk13" id="link_User3_E3"><path d="M88.72,332.21 C100.09,339.67 112.62,347.46 124.56,354 C141.72,363.4 155.7794,370.1035 172.8794,377.5535" fill="none" id="User3-to-E3" style="stroke:#181818;stroke-width:1;"/><polygon fill="#181818" points="178.38,379.95,171.7267,372.6882,173.7961,377.9529,168.5314,380.0224,178.38,379.95" style="stroke:#181818;stroke-width:1;"/></g><!--link User3 to E4--><g class="link" data-entity-1="User3" data-entity-2="E4" data-source-line="20" data-uid="lnk14" id="link_User3_E4"><path d="M88.68,304 C110.49,304 131.85,304 156.13,304" fill="none" id="User3-to-E4" style="stroke:#181818;stroke-width:1;"/><polygon fill="#181818" points="162.13,304,153.13,300,157.13,304,153.13,308,162.13,304" style="stroke:#181818;stroke-width:1;"/></g><!--link User3 to E5--><g class="link" data-entity-1="User3" data-entity-2="E5" data-source-line="21" data-uid="lnk15" id="link_User3_E5"><path d="M89.04,275.4 C100.31,268.02 112.7,260.37 124.56,254 C141.18,245.08 154.5605,238.8951 171.3105,231.9251" fill="none" id="User3-to-E5" style="stroke:#181818;stroke-width:1;"/><polygon fill="#181818" points="176.85,229.62,167.004,229.3846,172.2337,231.5409,170.0774,236.7707,176.85,229.62" style="stroke:#181818;stroke-width:1;"/></g><!--link User3 to E6--><g class="link" data-entity-1="User3" data-entity-2="E6" data-source-line="22" data-uid="lnk16" id="link_User3_E6"><path d="M61.67,265.4 C73.8,235.73 94.42,195.75 124.56,171 C138.49,159.56 150.8229,153.6998 167.6529,148.7598" fill="none" id="User3-to-E6" style="stroke:#181818;stroke-width:1;"/><polygon fill="#181818" points="173.41,147.07,163.6478,145.7667,168.6124,148.4782,165.9009,153.4429,173.41,147.07" style="stroke:#181818;stroke-width:1;"/></g><!--link User3 to E7--><g class="link" data-entity-1="User3" data-entity-2="E7" data-source-line="23" data-uid="lnk17" id="link_User3_E7"><path d="M53.83,265.63 C62.06,221.79 81.43,150.39 124.56,106 C135.67,94.57 144.9082,88.4797 159.6082,82.3797" fill="none" id="User3-to-E7" style="stroke:#181818;stroke-width:1;"/><polygon fill="#181818" points="165.15,80.08,155.3042,79.835,160.5318,81.9964,158.3704,87.224,165.15,80.08" style="stroke:#181818;stroke-width:1;"/></g><!--SRC=[XP4zJyCm48Pt_ufJ9Zfqe9zI1nRKBYmCi6Mv9aVYnjZ8Twb443-cOmOc92Os_p7o8LGbWF1mrdjwNlizdQ470N7WTPOBfDfJ8jfPfTGJ9WLc1D7MkvJWsY6BqPOu0cJeckVUYuBcb4m9Ci75zdBIGj4jUZawYoQsM8fxHD55oR4zu36yIJWnHYFZh3Vk3iwdheYj2RLuobtr6ppluHlDm9NEIEW_n-97hdCKmDI9n5R8Xq_JF6R7xcNllWiVdbAgI8H3dSKsd8pvOvxLTqJAdibsLCrZQDr3snOXCKtPxqFT96b68TFJwbKfJCHvsEp8vCXL-srutxJMUoO_LwgxO3gzwZOmaBEXd0_bOYYNGxaQolNa2m00]--></g></svg>