<svg xmlns="http://www.w3.org/2000/svg" xmlns:xlink="http://www.w3.org/1999/xlink" contentStyleType="text/css" data-diagram-type="DESCRIPTION" height="416px" preserveAspectRatio="none" style="width:378px;height:416px;background:#FFFFFF;" version="1.1" viewBox="0 0 378 416" width="378px" zoomAndPan="magnify"><defs/><g><!--cluster ErodeCoastlines--><g class="cluster" data-entity="ErodeCoastlines" data-source-line="4" data-uid="ent0002" id="cluster_ErodeCoastlines"><path d="M135.06,6 L268.2944,6 A3.75,3.75 0 0 1 270.7944,8.5 L277.7944,28.2969 L368.77,28.2969 A2.5,2.5 0 0 1 371.27,30.7969 L371.27,406.5 A2.5,2.5 0 0 1 368.77,409 L135.06,409 A2.5,2.5 0 0 1 132.56,406.5 L132.56,8.5 A2.5,2.5 0 0 1 135.06,6" fill="none" style="stroke:#000000;stroke-width:1.5;"/><line style="stroke:#000000;stroke-width:1.5;" x1="132.56" x2="277.7944" y1="28.2969" y2="28.2969"/><text fill="#000000" font-family="sans-serif" font-size="14" font-weight="bold" lengthAdjust="spacing" textLength="132.2344" x="136.56" y="20.9951">Erode Coastlines</text></g><!--entity E1--><g class="entity" data-entity="E1" data-source-line="5" data-uid="ent0003" id="entity_E1"><ellipse cx="251.9183" cy="368.9954" fill="#F1F1F1" rx="103.3583" ry="23.6654" style="stroke:#181818;stroke-width:0.5;"/><text fill="#000000" font-family="sans-serif" font-size="14" lengthAdjust="spacing" textLength="158.2861" x="172.7752" y="369.0851">Partvonal automatikus</text><text fill="#000000" font-family="sans-serif" font-size="14" lengthAdjust="spacing" textLength="54.585" x="224.6258" y="385.382">jav&#237;t&#225;sa</text></g><!--entity E2--><g class="entity" data-entity="E2" data-source-line="6" data-uid="ent0004" id="entity_E2"><ellipse cx="251.9164" cy="290.9953" fill="#F1F1F1" rx="83.0764" ry="19.0153" style="stroke:#181818;stroke-width:0.5;"/><text fill="#000000" font-family="sans-serif" font-size="14" lengthAdjust="spacing" textLength="137.874" x="182.9794" y="295.6437">Fjordok l&#233;trehoz&#225;sa</text></g><!--entity E3--><g class="entity" data-entity="E3" data-source-line="7" data-uid="ent0005" id="entity_E3"><ellipse cx="251.9187" cy="214.0017" fill="#F1F1F1" rx="102.1087" ry="22.8217" style="stroke:#181818;stroke-width:0.5;"/><text fill="#000000" font-family="sans-serif" font-size="14" lengthAdjust="spacing" textLength="180.6943" x="161.5715" y="218.6502">Kicsi szigetek l&#233;trehoz&#225;sa</text></g><!--entity E4--><g class="entity" data-entity="E4" data-source-line="8" data-uid="ent0006" id="entity_E4"><ellipse cx="251.921" cy="131.0048" fill="#F1F1F1" rx="88.571" ry="25.2248" style="stroke:#181818;stroke-width:0.5;"/><text fill="#000000" font-family="sans-serif" font-size="14" lengthAdjust="spacing" textLength="125.4941" x="189.1739" y="128.6903">Partvonal jav&#237;t&#225;sa</text><text fill="#000000" font-family="sans-serif" font-size="14" lengthAdjust="spacing" textLength="105.6699" x="199.086" y="144.9872">adott ter&#252;leten</text></g><!--entity E5--><g class="entity" data-entity="E5" data-source-line="9" data-uid="ent0007" id="entity_E5"><ellipse cx="251.9245" cy="55.9989" fill="#F1F1F1" rx="64.2945" ry="15.2589" style="stroke:#181818;stroke-width:0.5;"/><text fill="#000000" font-family="sans-serif" font-size="14" lengthAdjust="spacing" textLength="91.5879" x="206.1305" y="60.6473">K&#233;p let&#246;lt&#233;se</text></g><!--entity User3--><g class="entity" data-entity="User3" data-source-line="12" data-uid="ent0008" id="entity_User3"><ellipse cx="47.2788" cy="184.35" fill="#F1F1F1" rx="8" ry="8" style="stroke:#181818;stroke-width:0.5;"/><path d="M47.2788,192.35 L47.2788,219.35 M34.2788,200.35 L60.2788,200.35 M47.2788,219.35 L34.2788,234.35 M47.2788,219.35 L60.2788,234.35" fill="none" style="stroke:#181818;stroke-width:0.5;"/><text fill="#000000" font-family="sans-serif" font-size="14" lengthAdjust="spacing" textLength="82.5576" x="6" y="248.8451">Felhaszn&#225;l&#243;</text></g><!--link User3 to E1--><g class="link" data-entity-1="User3" data-entity-2="E1" data-source-line="14" data-uid="lnk9" id="link_User3_E1"><path d="M65.68,252.51 C78.67,277.29 98.63,308.39 124.56,328 C139.09,338.99 151.0144,345.1537 168.3944,351.1137" fill="none" id="User3-to-E1" style="stroke:#181818;stroke-width:1;"/><polygon fill="#181818" points="174.07,353.06,166.8542,346.3569,169.3404,351.4381,164.2591,353.9243,174.07,353.06" style="stroke:#181818;stroke-width:1;"/></g><!--link User3 to E2--><g class="link" data-entity-1="User3" data-entity-2="E2" data-source-line="15" data-uid="lnk10" id="link_User3_E2"><path d="M88.74,237.12 C100.11,243.09 112.63,249.18 124.56,254 C146.81,262.99 166.2886,269.2254 188.3386,275.3454" fill="none" id="User3-to-E2" style="stroke:#181818;stroke-width:1;"/><polygon fill="#181818" points="194.12,276.95,186.5176,270.6887,189.3021,275.6128,184.3781,278.3973,194.12,276.95" style="stroke:#181818;stroke-width:1;"/></g><!--link User3 to E3--><g class="link" data-entity-1="User3" data-entity-2="E3" data-source-line="16" data-uid="lnk11" id="link_User3_E3"><path d="M88.8,214 C106.47,214 122.06,214 143.64,214" fill="none" id="User3-to-E3" style="stroke:#181818;stroke-width:1;"/><polygon fill="#181818" points="149.64,214,140.64,210,144.64,214,140.64,218,149.64,214" style="stroke:#181818;stroke-width:1;"/></g><!--link User3 to E4--><g class="link" data-entity-1="User3" data-entity-2="E4" data-source-line="17" data-uid="lnk12" id="link_User3_E4"><path d="M88.88,191.22 C100.25,185.25 112.74,179.07 124.56,174 C145.64,164.95 163.6149,158.3585 184.7249,151.3585" fill="none" id="User3-to-E4" style="stroke:#181818;stroke-width:1;"/><polygon fill="#181818" points="190.42,149.47,180.6184,148.506,185.6741,151.0437,183.1364,156.0994,190.42,149.47" style="stroke:#181818;stroke-width:1;"/></g><!--link User3 to E5--><g class="link" data-entity-1="User3" data-entity-2="E5" data-source-line="18" data-uid="lnk13" id="link_User3_E5"><path d="M62.18,175.63 C74.38,147.3 94.86,109.98 124.56,88 C143.75,73.8 162.6914,67.0106 185.2614,62.6006" fill="none" id="User3-to-E5" style="stroke:#181818;stroke-width:1;"/><polygon fill="#181818" points="191.15,61.45,181.55,59.2501,186.2428,62.4088,183.0841,67.1017,191.15,61.45" style="stroke:#181818;stroke-width:1;"/></g><!--SRC=[XP2XRiD038RvFOKLj8A2DIqf69bQCZ8oLc9TlEIQwxawEmMPzZ250KEJXiRknPQcawf4asPY_R- -txRiwLL16Q8hAuN2HRBgE1XZZcXhB0coJUI2u95HrBj0aW4A3ERDUpFGLoDaKGZkDlUp2vGzOzGJ1_I0ZV81rTMDxC8UJ-b3qramc-GMrznspx7W6dpgD5B5xLziVcMVd1K7qhgIbFw9BATdtIxP1InO-rzGJD- -7nMcuTNlljGTeGVIbzVK2MNctHYqoX7MM_8LIXlIsQVFzGL_4OgvCKE3-VnX-Cr8BiOo7ylbMAvcFm00]--></g></svg>