<svg xmlns="http://www.w3.org/2000/svg" xmlns:xlink="http://www.w3.org/1999/xlink" contentStyleType="text/css" data-diagram-type="DESCRIPTION" height="640px" preserveAspectRatio="none" style="width:346px;height:640px;background:#FFFFFF;" version="1.1" viewBox="0 0 346 640" width="346px" zoomAndPan="magnify"><defs/><g><!--cluster FindContours--><g class="cluster" data-entity="FindContours" data-source-line="3" data-uid="ent0002" id="cluster_FindContours"><path d="M135.06,6 L246.6586,6 A3.75,3.75 0 0 1 249.1586,8.5 L256.1586,28.2969 L337.18,28.2969 A2.5,2.5 0 0 1 339.68,30.7969 L339.68,630.5 A2.5,2.5 0 0 1 337.18,633 L135.06,633 A2.5,2.5 0 0 1 132.56,630.5 L132.56,8.5 A2.5,2.5 0 0 1 135.06,6" fill="none" style="stroke:#000000;stroke-width:1.5;"/><line style="stroke:#000000;stroke-width:1.5;" x1="132.56" x2="256.1586" y1="28.2969" y2="28.2969"/><text fill="#000000" font-family="sans-serif" font-size="14" font-weight="bold" lengthAdjust="spacing" textLength="110.5986" x="136.56" y="20.9951">Find Contours</text></g><!--entity F1--><g class="entity" data-entity="F1" data-source-line="4" data-uid="ent0003" id="entity_F1"><ellipse cx="236.1233" cy="582.0035" fill="#F1F1F1" rx="61.7333" ry="34.6835" style="stroke:#181818;stroke-width:0.5;"/><text fill="#000000" font-family="sans-serif" font-size="14" lengthAdjust="spacing" textLength="59.2539" x="206.4963" y="567.4432">Keres&#233;si</text><text fill="#000000" font-family="sans-serif" font-size="14" lengthAdjust="spacing" textLength="90.6309" x="190.8078" y="583.7401">param&#233;terek</text><text fill="#000000" font-family="sans-serif" font-size="14" lengthAdjust="spacing" textLength="86.167" x="193.0398" y="600.037">v&#225;ltoztat&#225;sa</text></g><!--entity F2--><g class="entity" data-entity="F2" data-source-line="5" data-uid="ent0004" id="entity_F2"><ellipse cx="236.1182" cy="477.0044" fill="#F1F1F1" rx="59.9082" ry="35.3844" style="stroke:#181818;stroke-width:0.5;"/><text fill="#000000" font-family="sans-serif" font-size="14" lengthAdjust="spacing" textLength="59.2539" x="206.4913" y="462.1516">Keres&#233;si</text><text fill="#000000" font-family="sans-serif" font-size="14" lengthAdjust="spacing" textLength="74.8604" x="198.688" y="478.4485">algoritmus</text><text fill="#000000" font-family="sans-serif" font-size="14" lengthAdjust="spacing" textLength="85.9141" x="193.1612" y="494.7454">kiv&#225;laszt&#225;sa</text></g><!--entity F3--><g class="entity" data-entity="F3" data-source-line="6" data-uid="ent0005" id="entity_F3"><ellipse cx="236.1204" cy="387.0021" fill="#F1F1F1" rx="87.5604" ry="19.9121" style="stroke:#181818;stroke-width:0.5;"/><text fill="#000000" font-family="sans-serif" font-size="14" lengthAdjust="spacing" textLength="148.1963" x="162.0223" y="391.6505">K&#246;rvonalak kijel&#246;l&#233;se</text></g><!--entity F4--><g class="entity" data-entity="F4" data-source-line="7" data-uid="ent0006" id="entity_F4"><ellipse cx="236.1194" cy="314.0019" fill="#F1F1F1" rx="80.1594" ry="18.4319" style="stroke:#181818;stroke-width:0.5;"/><text fill="#000000" font-family="sans-serif" font-size="14" lengthAdjust="spacing" textLength="131.0518" x="170.5935" y="318.6503">K&#246;rvonalak t&#246;rl&#233;se</text></g><!--entity F5--><g class="entity" data-entity="F5" data-source-line="8" data-uid="ent0007" id="entity_F5"><ellipse cx="236.1227" cy="241.0025" fill="#F1F1F1" rx="85.7127" ry="19.5425" style="stroke:#181818;stroke-width:0.5;"/><text fill="#000000" font-family="sans-serif" font-size="14" lengthAdjust="spacing" textLength="143.9648" x="164.1403" y="245.651">K&#246;rvonalak ment&#233;se</text></g><!--entity F6--><g class="entity" data-entity="F6" data-source-line="9" data-uid="ent0008" id="entity_F6"><ellipse cx="236.1237" cy="162.0046" fill="#F1F1F1" rx="72.1537" ry="24.2246" style="stroke:#181818;stroke-width:0.5;"/><text fill="#000000" font-family="sans-serif" font-size="14" lengthAdjust="spacing" textLength="61.6943" x="205.2765" y="155.8055">K&#246;rvonal</text><text fill="#000000" font-family="sans-serif" font-size="14" lengthAdjust="spacing" textLength="106.1963" x="183.0256" y="172.1023">egy&#233;ni jav&#237;t&#225;sa</text></g><!--entity F7--><g class="entity" data-entity="F7" data-source-line="10" data-uid="ent0009" id="entity_F7"><ellipse cx="236.1181" cy="72.0009" fill="#F1F1F1" rx="86.8481" ry="30.8909" style="stroke:#181818;stroke-width:0.5;"/><text fill="#000000" font-family="sans-serif" font-size="14" lengthAdjust="spacing" textLength="54.6465" x="208.7948" y="58.4293">Mentett</text><text fill="#000000" font-family="sans-serif" font-size="14" lengthAdjust="spacing" textLength="146.9795" x="162.6283" y="74.7261">k&#246;rvonalak elrejt&#233;se,</text><text fill="#000000" font-family="sans-serif" font-size="14" lengthAdjust="spacing" textLength="98.916" x="186.66" y="91.023">megjelen&#237;t&#233;se</text></g><!--entity User2--><g class="entity" data-entity="User2" data-source-line="13" data-uid="ent0010" id="entity_User2"><ellipse cx="47.2788" cy="284.35" fill="#F1F1F1" rx="8" ry="8" style="stroke:#181818;stroke-width:0.5;"/><path d="M47.2788,292.35 L47.2788,319.35 M34.2788,300.35 L60.2788,300.35 M47.2788,319.35 L34.2788,334.35 M47.2788,319.35 L60.2788,334.35" fill="none" style="stroke:#181818;stroke-width:0.5;"/><text fill="#000000" font-family="sans-serif" font-size="14" lengthAdjust="spacing" textLength="82.5576" x="6" y="348.8451">Felhaszn&#225;l&#243;</text></g><!--link User2 to F1--><g class="link" data-entity-1="User2" data-entity-2="F1" data-source-line="15" data-uid="lnk11" id="link_User2_F1"><path d="M52.77,352.53 C60.12,399.67 78.8,479.42 124.56,530 C139.5,546.52 155.2204,555.9738 175.1304,564.0538" fill="none" id="User2-to-F1" style="stroke:#181818;stroke-width:1;"/><polygon fill="#181818" points="180.69,566.31,173.8547,559.2192,176.057,564.4298,170.8464,566.6321,180.69,566.31" style="stroke:#181818;stroke-width:1;"/></g><!--link User2 to F2--><g class="link" data-entity-1="User2" data-entity-2="F2" data-source-line="16" data-uid="lnk12" id="link_User2_F2"><path d="M68.2,352.42 C81.66,375.48 101.21,404.1 124.56,424 C141.89,438.77 158.5404,448.0841 178.4604,456.6741" fill="none" id="User2-to-F2" style="stroke:#181818;stroke-width:1;"/><polygon fill="#181818" points="183.97,459.05,177.2896,451.8132,179.3787,457.0701,174.1217,459.1593,183.97,459.05" style="stroke:#181818;stroke-width:1;"/></g><!--link User2 to F3--><g class="link" data-entity-1="User2" data-entity-2="F3" data-source-line="17" data-uid="lnk13" id="link_User2_F3"><path d="M89.06,334.33 C100.43,339.7 112.87,345.31 124.56,350 C143.25,357.51 158.4084,362.9013 176.9284,368.9713" fill="none" id="User2-to-F3" style="stroke:#181818;stroke-width:1;"/><polygon fill="#181818" points="182.63,370.84,175.3235,364.2359,177.8787,369.2827,172.8318,371.838,182.63,370.84" style="stroke:#181818;stroke-width:1;"/></g><!--link User2 to F4--><g class="link" data-entity-1="User2" data-entity-2="F4" data-source-line="18" data-uid="lnk14" id="link_User2_F4"><path d="M88.82,314 C108.35,314 126.49,314 149.48,314" fill="none" id="User2-to-F4" style="stroke:#181818;stroke-width:1;"/><polygon fill="#181818" points="155.48,314,146.48,310,150.48,314,146.48,318,155.48,314" style="stroke:#181818;stroke-width:1;"/></g><!--link User2 to F5--><g class="link" data-entity-1="User2" data-entity-2="F5" data-source-line="19" data-uid="lnk15" id="link_User2_F5"><path d="M89.06,293.67 C100.43,288.3 112.87,282.69 124.56,278 C143.62,270.34 159.2465,264.8027 178.0465,258.6627" fill="none" id="User2-to-F5" style="stroke:#181818;stroke-width:1;"/><polygon fill="#181818" points="183.75,256.8,173.9529,255.7918,178.9971,258.3523,176.4365,263.3965,183.75,256.8" style="stroke:#181818;stroke-width:1;"/></g><!--link User2 to F6--><g class="link" data-entity-1="User2" data-entity-2="F6" data-source-line="20" data-uid="lnk16" id="link_User2_F6"><path d="M67.32,275.41 C80.57,251.99 100.21,223.04 124.56,204 C140,191.92 153.6548,185.0146 171.7948,178.5846" fill="none" id="User2-to-F6" style="stroke:#181818;stroke-width:1;"/><polygon fill="#181818" points="177.45,176.58,167.6308,175.8167,172.7373,178.2505,170.3035,183.357,177.45,176.58" style="stroke:#181818;stroke-width:1;"/></g><!--link User2 to F7--><g class="link" data-entity-1="User2" data-entity-2="F7" data-source-line="21" data-uid="lnk17" id="link_User2_F7"><path d="M54.3,275.72 C62.91,232.79 82.58,163.48 124.56,120 C136.4,107.73 146.4348,100.864 162.0748,93.854" fill="none" id="User2-to-F7" style="stroke:#181818;stroke-width:1;"/><polygon fill="#181818" points="167.55,91.4,157.7012,91.4309,162.9873,93.445,160.9732,98.7312,167.55,91.4" style="stroke:#181818;stroke-width:1;"/></g><!--SRC=[RP6_QiCm4CPtFSNXgO5cgFCFCdGfU2aTktavdAiZMvQ2T3OqfG-JqKEdGbv0BrRPQQ7-eqNwZk_t7NTIzCR01gpCZmm7QIbZQRGG9ynAp0cYHEe3F1dDfhOk0dJGLVuA7mB2gHrbw0ZkaeT5vuYUoPBphPEfFg75ohSSAcMg6tzHRCwCx2yEen4TJsXKkR6IgzgbkfGTZUvyOpjqnAz-UN-rZGaibb3AWfI_gX17utRhgPt3UzQxcNehqZndtOwigQRytRTQGe6D_vgTV7TZNa8aCOTP__KXPQdeEzsdkg8y34Iwo-bxVmg16HiB-uJKCMn7XoNvxtsNz-h8naBq5ooNZ_q73MGybAkXN0_bPYYtGxbR_000]--></g></svg>