<svg xmlns="http://www.w3.org/2000/svg" xmlns:xlink="http://www.w3.org/1999/xlink" contentStyleType="text/css" data-diagram-type="DESCRIPTION" height="355px" preserveAspectRatio="none" style="width:885px;height:355px;background:#FFFFFF;" version="1.1" viewBox="0 0 885 355" width="885px" zoomAndPan="magnify"><defs/><g><!--cluster Editors--><g class="cluster" data-entity="Editors" data-source-line="7" data-uid="ent0005" id="cluster_Editors"><path d="M391.89,245.06 L488.4291,245.06 A3.75,3.75 0 0 1 490.9291,247.56 L497.9291,267.3569 L875.89,267.3569 A2.5,2.5 0 0 1 878.39,269.8569 L878.39,345.86 A2.5,2.5 0 0 1 875.89,348.36 L391.89,348.36 A2.5,2.5 0 0 1 389.39,345.86 L389.39,247.56 A2.5,2.5 0 0 1 391.89,245.06" fill="none" style="stroke:#000000;stroke-width:1.5;"/><line style="stroke:#000000;stroke-width:1.5;" x1="389.39" x2="497.9291" y1="267.3569" y2="267.3569"/><text fill="#000000" font-family="sans-serif" font-size="14" font-weight="bold" lengthAdjust="spacing" textLength="95.5391" x="393.39" y="260.0551">Szerkeszt&#337;k</text></g><!--entity P--><g class="entity" data-entity="P" data-source-line="8" data-uid="ent0006" id="entity_P"><rect fill="#F1F1F1" height="36.2969" rx="2.5" ry="2.5" style="stroke:#181818;stroke-width:0.5;" width="96.918" x="432.93" y="288.06"/><text fill="#000000" font-family="sans-serif" font-size="14" lengthAdjust="spacing" textLength="76.918" x="442.93" y="311.0551">Preprocess</text></g><!--entity F--><g class="entity" data-entity="F" data-source-line="9" data-uid="ent0007" id="entity_F"><rect fill="#F1F1F1" height="36.2969" rx="2.5" ry="2.5" style="stroke:#181818;stroke-width:0.5;" width="117.3438" x="564.72" y="288.06"/><text fill="#000000" font-family="sans-serif" font-size="14" lengthAdjust="spacing" textLength="97.3438" x="574.72" y="311.0551">Find Contours</text></g><!--entity E--><g class="entity" data-entity="E" data-source-line="10" data-uid="ent0008" id="entity_E"><rect fill="#F1F1F1" height="36.2969" rx="2.5" ry="2.5" style="stroke:#181818;stroke-width:0.5;" width="137.3799" x="716.7" y="288.06"/><text fill="#000000" font-family="sans-serif" font-size="14" lengthAdjust="spacing" textLength="117.3799" x="726.7" y="311.0551">Erode Coastlines</text></g><!--entity U--><g class="entity" data-entity="U" data-source-line="2" data-uid="ent0002" id="entity_U"><ellipse cx="331.3869" cy="158.4314" fill="#F1F1F1" rx="66.1569" ry="15.6314" style="stroke:#181818;stroke-width:0.5;"/><text fill="#000000" font-family="sans-serif" font-size="14" lengthAdjust="spacing" textLength="96.5166" x="283.1286" y="163.0798">K&#233;p felt&#246;lt&#233;se</text></g><!--entity UnD--><g class="entity" data-entity="UnD" data-source-line="4" data-uid="ent0003" id="entity_UnD"><ellipse cx="272.3875" cy="306.2135" fill="#F1F1F1" rx="87.1175" ry="19.8235" style="stroke:#181818;stroke-width:0.5;"/><text fill="#000000" font-family="sans-serif" font-size="14" lengthAdjust="spacing" textLength="147.1846" x="198.7952" y="310.8619">Visszavon&#225;s (Ctrl+Z)</text></g><!--entity R--><g class="entity" data-entity="R" data-source-line="5" data-uid="ent0004" id="entity_R"><ellipse cx="73.3927" cy="306.2085" fill="#F1F1F1" rx="67.3927" ry="15.8785" style="stroke:#181818;stroke-width:0.5;"/><text fill="#000000" font-family="sans-serif" font-size="14" lengthAdjust="spacing" textLength="99.7295" x="23.5279" y="310.857">Ism&#233;t (Ctrl+Y)</text></g><!--entity User--><g class="entity" data-entity="User" data-source-line="13" data-uid="ent0009" id="entity_User"><ellipse cx="453.3888" cy="14" fill="#F1F1F1" rx="8" ry="8" style="stroke:#181818;stroke-width:0.5;"/><path d="M453.3888,22 L453.3888,49 M440.3888,30 L466.3888,30 M453.3888,49 L440.3888,64 M453.3888,49 L466.3888,64" fill="none" style="stroke:#181818;stroke-width:0.5;"/><text fill="#000000" font-family="sans-serif" font-size="14" lengthAdjust="spacing" textLength="82.5576" x="412.11" y="78.4951">Felhaszn&#225;l&#243;</text></g><!--link User to U--><g class="link" data-entity-1="User" data-entity-2="U" data-source-line="15" data-uid="lnk10" id="link_User_U"><path d="M412.77,82.21 C390.31,102.97 368.0961,123.5073 351.5761,138.7773" fill="none" id="User-to-U" style="stroke:#181818;stroke-width:1;"/><polygon fill="#181818" points="347.17,142.85,356.4942,139.6784,350.8417,139.4561,351.064,133.8036,347.17,142.85" style="stroke:#181818;stroke-width:1;"/></g><!--link User to UnD--><g class="link" data-entity-1="User" data-entity-2="UnD" data-source-line="16" data-uid="lnk11" id="link_User_UnD"><path d="M411.69,52.97 C345.44,68.82 219.25,110.48 176.39,204.06 C160.31,239.17 196.2662,266.9386 229.6262,285.0386" fill="none" id="User-to-UnD" style="stroke:#181818;stroke-width:1;"/><polygon fill="#181818" points="234.9,287.9,228.8969,280.0921,230.5052,285.5155,225.0818,287.1238,234.9,287.9" style="stroke:#181818;stroke-width:1;"/></g><!--link User to R--><g class="link" data-entity-1="User" data-entity-2="R" data-source-line="17" data-uid="lnk12" id="link_User_R"><path d="M411.81,51.09 C355.6,61.63 254.8,87.22 188.39,142.8 C136.2,186.49 98.9215,253.7476 83.2815,284.9076" fill="none" id="User-to-R" style="stroke:#181818;stroke-width:1;"/><polygon fill="#181818" points="80.59,290.27,88.2023,284.0207,82.8329,285.8013,81.0524,280.432,80.59,290.27" style="stroke:#181818;stroke-width:1;"/></g><!--link User to P--><g class="link" data-entity-1="User" data-entity-2="P" data-source-line="18" data-uid="lnk13" id="link_User_P"><path d="M457.43,82.26 C463.58,139.48 474.4094,240.1743 478.8894,281.8943" fill="none" id="User-to-P" style="stroke:#181818;stroke-width:1;"/><polygon fill="#181818" points="479.53,287.86,482.5462,278.4844,478.9962,282.8886,474.5919,279.3385,479.53,287.86" style="stroke:#181818;stroke-width:1;"/></g><!--link User to F--><g class="link" data-entity-1="User" data-entity-2="F" data-source-line="19" data-uid="lnk14" id="link_User_F"><path d="M477.93,82.26 C515.26,139.48 581.5714,241.115 608.7914,282.835" fill="none" id="User-to-F" style="stroke:#181818;stroke-width:1;"/><polygon fill="#181818" points="612.07,287.86,610.5022,278.1367,609.3379,283.6725,603.8021,282.5081,612.07,287.86" style="stroke:#181818;stroke-width:1;"/></g><!--link User to E--><g class="link" data-entity-1="User" data-entity-2="E" data-source-line="20" data-uid="lnk15" id="link_User_E"><path d="M495.09,74.32 C544.66,109.95 629.48,172.06 699.39,229.06 C723.2,248.47 745.0572,268.0255 762.2272,283.7655" fill="none" id="User-to-E" style="stroke:#181818;stroke-width:1;"/><polygon fill="#181818" points="766.65,287.82,762.7187,278.7898,762.9643,284.4413,757.3128,284.6868,766.65,287.82" style="stroke:#181818;stroke-width:1;"/></g><!--link U to Editors--><g class="link" data-entity-1="U" data-entity-2="Editors" data-source-line="22" data-uid="lnk16" id="link_U_Editors"><path d="M343.15,174.08 C353.49,187.63 368.29,208.69 377.39,229.06 C380.85,236.7975 383.8075,245.2538 386.303,253.6267 C386.9268,255.72 387.5218,257.808 388.0886,259.8783 C388.3719,260.9134 388.6483,261.9442 388.9176,262.9689 C389.0523,263.4812 387.6882,258.1818 387.8194,258.691" fill="none" id="U-to-Editors" style="stroke:#181818;stroke-width:1;stroke-dasharray:7,7;"/><polygon fill="#181818" points="389.3164,264.5013,390.9444,254.7879,388.0689,259.6594,383.1974,256.7839,389.3164,264.5013" style="stroke:#181818;stroke-width:1;"/><text fill="#000000" font-family="sans-serif" font-size="13" lengthAdjust="spacing" textLength="59.7632" x="374.39" y="217.1269">precedes</text></g><!--link U to UnD--><g class="link" data-entity-1="U" data-entity-2="UnD" data-source-line="23" data-uid="lnk17" id="link_U_UnD"><path d="M316.84,173.93 C309.39,182.14 300.78,192.95 295.39,204.06 C282.44,230.8 277.3393,259.1321 274.8393,280.1321" fill="none" id="U-to-UnD" style="stroke:#181818;stroke-width:1;stroke-dasharray:7,7;"/><polygon fill="#181818" points="274.13,286.09,279.1659,277.626,274.7211,281.1251,271.222,276.6803,274.13,286.09" style="stroke:#181818;stroke-width:1;"/><text fill="#000000" font-family="sans-serif" font-size="13" lengthAdjust="spacing" textLength="59.7632" x="296.39" y="217.1269">precedes</text></g><!--link U to R--><g class="link" data-entity-1="U" data-entity-2="R" data-source-line="24" data-uid="lnk18" id="link_U_R"><path d="M293.58,171.6 C259.22,183.55 207.86,203.64 167.39,229.06 C137.87,247.61 111.5491,270.0833 93.5691,286.4333" fill="none" id="U-to-R" style="stroke:#181818;stroke-width:1;stroke-dasharray:7,7;"/><polygon fill="#181818" points="89.13,290.47,98.4797,287.3744,92.8292,287.1061,93.0975,281.4556,89.13,290.47" style="stroke:#181818;stroke-width:1;"/><text fill="#000000" font-family="sans-serif" font-size="13" lengthAdjust="spacing" textLength="59.7632" x="211.39" y="217.1269">precedes</text></g><!--SRC=[PP11QiCm44NtEiMWLKn93k15DgaD9HlZaaAxKwrfAgn8HZFfmgM7w16wzBhG2vZUgxAJKj489FZp7rypmxu3zl3ecVq1j0dOiF5E70aRHGYBNGQAG6x7eOCdj3n-nJiGIf4mxlf4tHcYNhruDtuGB3OSxDL39l_0-eJTq64S-0pSHq1qgcdL7a7UzXXQf9w_trivmOKsx0Ez2eXdwawvlKMevg0gO1TyWqJodr_EVccSXertx8_X0Ybcf0XUOsGKiJKE8_K6GgWcVWfvYVPPKH_7iUDdFl4xmY34zC9okPxMauguXqJMgQXIKQQYo68Wh5RhtraXXowsYHhfRCJWosATb7u0]--></g></svg>