<svg xmlns="http://www.w3.org/2000/svg" xmlns:xlink="http://www.w3.org/1999/xlink" contentStyleType="text/css" data-diagram-type="DESCRIPTION" height="313px" preserveAspectRatio="none" style="width:882px;height:313px;background:#FFFFFF;" version="1.1" viewBox="0 0 882 313" width="882px" zoomAndPan="magnify"><defs/><g><!--cluster UA--><g class="cluster" data-entity="UA" data-source-line="5" data-uid="ent0003" id="cluster_UA"><rect fill="none" height="275" rx="2.5" ry="2.5" style="stroke:#181818;stroke-width:1;" width="222.24" x="654.25" y="32"/><text fill="#000000" font-family="sans-serif" font-size="14" font-weight="bold" lengthAdjust="spacing" textLength="98.1299" x="716.3051" y="46.9951">User actions</text></g><!--cluster Editors--><g class="cluster" data-entity="Editors" data-source-line="10" data-uid="ent0007" id="cluster_Editors"><rect fill="none" height="265" rx="2.5" ry="2.5" style="stroke:#181818;stroke-width:1;" width="185.38" x="7" y="7"/><text fill="#000000" font-family="sans-serif" font-size="14" font-weight="bold" lengthAdjust="spacing" textLength="95.5391" x="51.9205" y="21.9951">Szerkeszt&#337;k</text></g><!--entity UnD--><g class="entity" data-entity="UnD" data-source-line="6" data-uid="ent0004" id="entity_UnD"><ellipse cx="765.3675" cy="180.0035" fill="#F1F1F1" rx="87.1175" ry="19.8235" style="stroke:#181818;stroke-width:0.5;"/><text fill="#000000" font-family="sans-serif" font-size="14" lengthAdjust="spacing" textLength="147.1846" x="691.7752" y="184.6519">Visszavon&#225;s (Ctrl+Z)</text></g><!--entity R--><g class="entity" data-entity="R" data-source-line="7" data-uid="ent0005" id="entity_R"><ellipse cx="765.3727" cy="266.9985" fill="#F1F1F1" rx="67.3927" ry="15.8785" style="stroke:#181818;stroke-width:0.5;"/><text fill="#000000" font-family="sans-serif" font-size="14" lengthAdjust="spacing" textLength="99.7295" x="715.5079" y="271.647">Ism&#233;t (Ctrl+Y)</text></g><!--entity D--><g class="entity" data-entity="D" data-source-line="8" data-uid="ent0006" id="entity_D"><ellipse cx="765.3745" cy="109.9989" fill="#F1F1F1" rx="64.2945" ry="15.2589" style="stroke:#181818;stroke-width:0.5;"/><text fill="#000000" font-family="sans-serif" font-size="14" lengthAdjust="spacing" textLength="91.5879" x="719.5805" y="114.6473">K&#233;p let&#246;lt&#233;se</text></g><!--entity P--><g class="entity" data-entity="P" data-source-line="11" data-uid="ent0008" id="entity_P"><rect fill="#F1F1F1" height="36.2969" rx="2.5" ry="2.5" style="stroke:#181818;stroke-width:0.5;" width="96.918" x="51.23" y="69.85"/><text fill="#000000" font-family="sans-serif" font-size="14" lengthAdjust="spacing" textLength="76.918" x="61.23" y="92.8451">Preprocess</text></g><!--entity F--><g class="entity" data-entity="F" data-source-line="12" data-uid="ent0009" id="entity_F"><rect fill="#F1F1F1" height="36.2969" rx="2.5" ry="2.5" style="stroke:#181818;stroke-width:0.5;" width="117.3438" x="41.02" y="140.85"/><text fill="#000000" font-family="sans-serif" font-size="14" lengthAdjust="spacing" textLength="97.3438" x="51.02" y="163.8451">Find Contours</text></g><!--entity E--><g class="entity" data-entity="E" data-source-line="13" data-uid="ent0010" id="entity_E"><rect fill="#F1F1F1" height="36.2969" rx="2.5" ry="2.5" style="stroke:#181818;stroke-width:0.5;" width="137.3799" x="31" y="211.85"/><text fill="#000000" font-family="sans-serif" font-size="14" lengthAdjust="spacing" textLength="117.3799" x="41" y="234.8451">Erode Coastlines</text></g><!--entity U--><g class="entity" data-entity="U" data-source-line="3" data-uid="ent0002" id="entity_U"><ellipse cx="457.0869" cy="47.0014" fill="#F1F1F1" rx="66.1569" ry="15.6314" style="stroke:#181818;stroke-width:0.5;"/><text fill="#000000" font-family="sans-serif" font-size="14" lengthAdjust="spacing" textLength="96.5166" x="408.8286" y="51.6498">K&#233;p felt&#246;lt&#233;se</text></g><!--entity User--><g class="entity" data-entity="User" data-source-line="16" data-uid="ent0011" id="entity_User"><ellipse cx="288.6588" cy="129.35" fill="#F1F1F1" rx="8" ry="8" style="stroke:#181818;stroke-width:0.5;"/><path d="M288.6588,137.35 L288.6588,164.35 M275.6588,145.35 L301.6588,145.35 M288.6588,164.35 L275.6588,179.35 M288.6588,164.35 L301.6588,179.35" fill="none" style="stroke:#181818;stroke-width:0.5;"/><text fill="#000000" font-family="sans-serif" font-size="14" lengthAdjust="spacing" textLength="82.5576" x="247.38" y="193.8451">Felhaszn&#225;l&#243;</text></g><!--link User to U--><g class="link" data-entity-1="User" data-entity-2="U" data-source-line="18" data-uid="lnk12" id="link_User_U"><path d="M329.91,120.52 C339.4,112.3 349.74,103.99 359.94,97 C380.42,82.95 399.9169,72.6672 419.2669,63.5072" fill="none" id="User-to-U" style="stroke:#181818;stroke-width:1;"/><polygon fill="#181818" points="424.69,60.94,414.844,61.1754,420.1708,63.0793,418.2669,68.4062,424.69,60.94" style="stroke:#181818;stroke-width:1;"/></g><!--link User to UnD--><g class="link" data-entity-1="User" data-entity-2="UnD" data-source-line="19" data-uid="lnk13" id="link_User_UnD"><path d="M330.13,160.79 C407.26,164.2 570.7759,171.4351 673.7159,175.9851" fill="none" id="User-to-UnD" style="stroke:#181818;stroke-width:1;"/><polygon fill="#181818" points="679.71,176.25,670.8954,171.8565,674.7149,176.0292,670.5421,179.8487,679.71,176.25" style="stroke:#181818;stroke-width:1;"/></g><!--link User to R--><g class="link" data-entity-1="User" data-entity-2="R" data-source-line="20" data-uid="lnk14" id="link_User_R"><path d="M330.13,168.21 C417.13,188 615.7895,233.1988 709.7495,254.5788" fill="none" id="User-to-R" style="stroke:#181818;stroke-width:1;"/><polygon fill="#181818" points="715.6,255.91,707.7118,250.0128,710.7246,254.8006,705.9368,257.8135,715.6,255.91" style="stroke:#181818;stroke-width:1;"/></g><!--link User to D--><g class="link" data-entity-1="User" data-entity-2="D" data-source-line="21" data-uid="lnk15" id="link_User_D"><path d="M330.17,145.24 C339.82,142.42 350.16,139.78 359.94,138 C479.04,116.36 614.6705,111.2409 694.7805,110.1609" fill="none" id="User-to-D" style="stroke:#181818;stroke-width:1;"/><polygon fill="#181818" points="700.78,110.08,691.7269,106.2017,695.7805,110.1474,691.8347,114.201,700.78,110.08" style="stroke:#181818;stroke-width:1;"/></g><!--reverse link E to User--><g class="link" data-entity-1="E" data-entity-2="User" data-source-line="22" data-uid="lnk17" id="link_E_User"><path d="M167.7525,209.5041 C183.0025,204.5141 193.54,200.76 208.38,195 C221.06,190.08 234.63,184.17 246.88,178.57" fill="none" id="E-backto-User" style="stroke:#181818;stroke-width:1;"/><polygon fill="#181818" points="162.05,211.37,171.8477,212.3728,166.8021,209.8151,169.3598,204.7695,162.05,211.37" style="stroke:#181818;stroke-width:1;"/></g><!--reverse link F to User--><g class="link" data-entity-1="F" data-entity-2="User" data-source-line="23" data-uid="lnk19" id="link_F_User"><path d="M164.82,159 C193.44,159 221.25,159 247.05,159" fill="none" id="F-backto-User" style="stroke:#181818;stroke-width:1;"/><polygon fill="#181818" points="158.82,159,167.82,163,163.82,159,167.82,155,158.82,159" style="stroke:#181818;stroke-width:1;"/></g><!--reverse link P to User--><g class="link" data-entity-1="P" data-entity-2="User" data-source-line="24" data-uid="lnk21" id="link_P_User"><path d="M154.2618,104.0959 C173.0818,110.0359 189.05,115.5 208.38,123 C221.06,127.92 234.63,133.83 246.88,139.43" fill="none" id="P-backto-User" style="stroke:#181818;stroke-width:1;"/><polygon fill="#181818" points="148.54,102.29,155.9187,108.8134,153.3081,103.7949,158.3266,101.1844,148.54,102.29" style="stroke:#181818;stroke-width:1;"/></g><!--link U to Editors--><g class="link" data-entity-1="U" data-entity-2="Editors" data-source-line="26" data-uid="lnk22" id="link_U_Editors"><path d="M391.4,44.63 C340.705,42.775 269.035,40.155 209.5425,37.98 C205.8242,37.8441 202.1535,37.7099 198.5385,37.5777 C196.7309,37.5116 200.9333,37.6653 199.1546,37.6002" fill="none" id="U-to-Editors" style="stroke:#181818;stroke-width:1;stroke-dasharray:7,7;"/><polygon fill="#181818" points="193.1586,37.381,202.0065,41.7072,198.1553,37.5637,202.2988,33.7125,193.1586,37.381" style="stroke:#181818;stroke-width:1;"/><text fill="#000000" font-family="sans-serif" font-size="13" lengthAdjust="spacing" textLength="75.6704" x="251.16" y="36.0669">&#171;precedes&#187;</text></g><!--link U to UA--><g class="link" data-entity-1="U" data-entity-2="UA" data-source-line="27" data-uid="lnk23" id="link_U_UA"><path d="M522.67,49.53 C544.785,50.3975 570.6531,51.4112 597.0878,52.4469 C610.3052,52.9647 623.6641,53.488 636.7664,54.0012 C640.042,54.1295 643.3016,54.2571 646.5388,54.3839 C648.1575,54.4473 649.7705,54.5105 651.3772,54.5735 C652.1806,54.6049 646.987,54.4015 647.7871,54.4328" fill="none" id="U-to-UA" style="stroke:#181818;stroke-width:1;stroke-dasharray:7,7;"/><polygon fill="#181818" points="653.7825,54.6677,644.9459,50.3185,648.7863,54.472,644.6328,58.3124,653.7825,54.6677" style="stroke:#181818;stroke-width:1;"/><text fill="#000000" font-family="sans-serif" font-size="13" lengthAdjust="spacing" textLength="75.6704" x="554.25" y="47.0669">&#171;precedes&#187;</text></g><!--link UnD to R--><g class="link" data-entity-1="UnD" data-entity-2="R" data-source-line="28" data-uid="lnk24" id="link_UnD_R"><path d="M765.37,200.27 C765.37,215.6 765.37,230.36 765.37,244.64" fill="none" id="UnD-to-R" style="stroke:#181818;stroke-width:1;stroke-dasharray:7,7;"/><polygon fill="#181818" points="765.37,250.64,769.37,241.64,765.37,245.64,761.37,241.64,765.37,250.64" style="stroke:#181818;stroke-width:1;"/><text fill="#000000" font-family="sans-serif" font-size="13" lengthAdjust="spacing" textLength="75.6704" x="716.37" y="230.0369">&#171;precedes&#187;</text></g><!--SRC=[PP11QiCm44NtEiNWLKA93s228IGsb6w2YmljJjYJH4ILWaRkmYM7w16wpBhG2vZUgxBiDhOZqEBhFus-liIT1Ql1YFt1GYaC5bPenLX5M712cELpu0J1GtCvmGwbRRxTlX06ZBKmLtk94EI41hY_Iq5x8L-zCt3hEaTjkabFWgZcRrerdmIpjJNoxcKUZE6iG-_fjRdO7dgUGfj1Cec3OETXiiSQpH6fjZyVHvyiAONLXhfuLt3hXsqDdemka2YO-AdtKw5AM6jbTMLkaCGZYT4bEeQJbKAXeyx0cEj66uXIb0TEjVkxRBuYNvHhZZ7Vts8HjtttelJAjJRKsKZzUrMhaf5AHsexTsz06CP_tuS8bikJouubKXptPhwwELSR28spiedp2m00]--></g></svg>