<svg xmlns="http://www.w3.org/2000/svg" xmlns:xlink="http://www.w3.org/1999/xlink" contentStyleType="text/css" data-diagram-type="DESCRIPTION" height="1691px" preserveAspectRatio="none" style="width:729px;height:1691px;background:#FFFFFF;" version="1.1" viewBox="0 0 729 1691" width="729px" zoomAndPan="magnify"><defs/><g><!--cluster UA--><g class="cluster" data-entity="UA" data-source-line="3" data-uid="ent0003" id="cluster_UA"><path d="M502.83,1121 L601.9599,1121 A3.75,3.75 0 0 1 604.4599,1123.5 L611.4599,1143.2969 L720.06,1143.2969 A2.5,2.5 0 0 1 722.56,1145.7969 L722.56,1376.5 A2.5,2.5 0 0 1 720.06,1379 L502.83,1379 A2.5,2.5 0 0 1 500.33,1376.5 L500.33,1123.5 A2.5,2.5 0 0 1 502.83,1121" fill="none" style="stroke:#000000;stroke-width:1.5;"/><line style="stroke:#000000;stroke-width:1.5;" x1="500.33" x2="611.4599" y1="1143.2969" y2="1143.2969"/><text fill="#000000" font-family="sans-serif" font-size="14" font-weight="bold" lengthAdjust="spacing" textLength="98.1299" x="504.33" y="1135.9951">User actions</text></g><!--cluster Editors--><g class="cluster" data-entity="Editors" data-source-line="8" data-uid="ent0007" id="cluster_Editors"><path d="M521.26,1419 L617.7991,1419 A3.75,3.75 0 0 1 620.2991,1421.5 L627.2991,1441.2969 L701.64,1441.2969 A2.5,2.5 0 0 1 704.14,1443.7969 L704.14,1681.5 A2.5,2.5 0 0 1 701.64,1684 L521.26,1684 A2.5,2.5 0 0 1 518.76,1681.5 L518.76,1421.5 A2.5,2.5 0 0 1 521.26,1419" fill="none" style="stroke:#000000;stroke-width:1.5;"/><line style="stroke:#000000;stroke-width:1.5;" x1="518.76" x2="627.2991" y1="1441.2969" y2="1441.2969"/><text fill="#000000" font-family="sans-serif" font-size="14" font-weight="bold" lengthAdjust="spacing" textLength="95.5391" x="522.76" y="1433.9951">Szerkeszt&#337;k</text></g><!--cluster Preprocess--><g class="cluster" data-entity="Preprocess" data-source-line="15" data-uid="ent0011" id="cluster_Preprocess"><path d="M141.24,798 L229.9041,798 A3.75,3.75 0 0 1 232.4041,800.5 L239.4041,820.2969 L393.64,820.2969 A2.5,2.5 0 0 1 396.14,822.7969 L396.14,1141.5 A2.5,2.5 0 0 1 393.64,1144 L141.24,1144 A2.5,2.5 0 0 1 138.74,1141.5 L138.74,800.5 A2.5,2.5 0 0 1 141.24,798" fill="none" style="stroke:#000000;stroke-width:1.5;"/><line style="stroke:#000000;stroke-width:1.5;" x1="138.74" x2="239.4041" y1="820.2969" y2="820.2969"/><text fill="#000000" font-family="sans-serif" font-size="14" font-weight="bold" lengthAdjust="spacing" textLength="87.6641" x="142.74" y="812.9951">Preprocess</text></g><!--cluster FindContours--><g class="cluster" data-entity="FindContours" data-source-line="22" data-uid="ent0016" id="cluster_FindContours"><path d="M138.06,433 L249.6586,433 A3.75,3.75 0 0 1 252.1586,435.5 L259.1586,455.2969 L396.83,455.2969 A2.5,2.5 0 0 1 399.33,457.7969 L399.33,771.5 A2.5,2.5 0 0 1 396.83,774 L138.06,774 A2.5,2.5 0 0 1 135.56,771.5 L135.56,435.5 A2.5,2.5 0 0 1 138.06,433" fill="none" style="stroke:#000000;stroke-width:1.5;"/><line style="stroke:#000000;stroke-width:1.5;" x1="135.56" x2="259.1586" y1="455.2969" y2="455.2969"/><text fill="#000000" font-family="sans-serif" font-size="14" font-weight="bold" lengthAdjust="spacing" textLength="110.5986" x="139.56" y="447.9951">Find Contours</text></g><!--cluster ErodeCoastlines--><g class="cluster" data-entity="ErodeCoastlines" data-source-line="29" data-uid="ent0021" id="cluster_ErodeCoastlines"><path d="M150.59,6 L283.8244,6 A3.75,3.75 0 0 1 286.3244,8.5 L293.3244,28.2969 L384.3,28.2969 A2.5,2.5 0 0 1 386.8,30.7969 L386.8,406.5 A2.5,2.5 0 0 1 384.3,409 L150.59,409 A2.5,2.5 0 0 1 148.09,406.5 L148.09,8.5 A2.5,2.5 0 0 1 150.59,6" fill="none" style="stroke:#000000;stroke-width:1.5;"/><line style="stroke:#000000;stroke-width:1.5;" x1="148.09" x2="293.3244" y1="28.2969" y2="28.2969"/><text fill="#000000" font-family="sans-serif" font-size="14" font-weight="bold" lengthAdjust="spacing" textLength="132.2344" x="152.09" y="20.9951">Erode Coastlines</text></g><!--entity UnD--><g class="entity" data-entity="UnD" data-source-line="4" data-uid="ent0004" id="entity_UnD"><ellipse cx="611.4475" cy="1316.0035" fill="#F1F1F1" rx="87.1175" ry="19.8235" style="stroke:#181818;stroke-width:0.5;"/><text fill="#000000" font-family="sans-serif" font-size="14" lengthAdjust="spacing" textLength="147.1846" x="537.8552" y="1320.6519">Visszavon&#225;s (Ctrl+Z)</text></g><!--entity R--><g class="entity" data-entity="R" data-source-line="5" data-uid="ent0005" id="entity_R"><ellipse cx="611.4527" cy="1179.9985" fill="#F1F1F1" rx="67.3927" ry="15.8785" style="stroke:#181818;stroke-width:0.5;"/><text fill="#000000" font-family="sans-serif" font-size="14" lengthAdjust="spacing" textLength="99.7295" x="561.5879" y="1184.647">Ism&#233;t (Ctrl+Y)</text></g><!--entity D--><g class="entity" data-entity="D" data-source-line="6" data-uid="ent0006" id="entity_D"><ellipse cx="611.4545" cy="1245.9989" fill="#F1F1F1" rx="64.2945" ry="15.2589" style="stroke:#181818;stroke-width:0.5;"/><text fill="#000000" font-family="sans-serif" font-size="14" lengthAdjust="spacing" textLength="91.5879" x="565.6605" y="1250.6473">K&#233;p let&#246;lt&#233;se</text></g><!--entity P--><g class="entity" data-entity="P" data-source-line="9" data-uid="ent0008" id="entity_P"><rect fill="#F1F1F1" height="36.2969" rx="2.5" ry="2.5" style="stroke:#181818;stroke-width:0.5;" width="96.918" x="562.99" y="1481.85"/><text fill="#000000" font-family="sans-serif" font-size="14" lengthAdjust="spacing" textLength="76.918" x="572.99" y="1504.8451">Preprocess</text></g><!--entity F--><g class="entity" data-entity="F" data-source-line="10" data-uid="ent0009" id="entity_F"><rect fill="#F1F1F1" height="36.2969" rx="2.5" ry="2.5" style="stroke:#181818;stroke-width:0.5;" width="117.3438" x="552.78" y="1623.85"/><text fill="#000000" font-family="sans-serif" font-size="14" lengthAdjust="spacing" textLength="97.3438" x="562.78" y="1646.8451">Find Contours</text></g><!--entity E--><g class="entity" data-entity="E" data-source-line="11" data-uid="ent0010" id="entity_E"><rect fill="#F1F1F1" height="36.2969" rx="2.5" ry="2.5" style="stroke:#181818;stroke-width:0.5;" width="137.3799" x="542.76" y="1552.85"/><text fill="#000000" font-family="sans-serif" font-size="14" lengthAdjust="spacing" textLength="117.3799" x="552.76" y="1575.8451">Erode Coastlines</text></g><!--entity P1--><g class="entity" data-entity="P1" data-source-line="16" data-uid="ent0012" id="entity_P1"><ellipse cx="267.4385" cy="854.9997" fill="#F1F1F1" rx="98.5485" ry="22.1097" style="stroke:#181818;stroke-width:0.5;"/><text fill="#000000" font-family="sans-serif" font-size="14" lengthAdjust="spacing" textLength="172.8535" x="181.0117" y="859.6481">Zajcs&#246;kkent&#233;s be&#225;ll&#237;t&#225;sa</text></g><!--entity P2--><g class="entity" data-entity="P2" data-source-line="17" data-uid="ent0013" id="entity_P2"><ellipse cx="267.4424" cy="935.9965" fill="#F1F1F1" rx="108.8824" ry="24.1765" style="stroke:#181818;stroke-width:0.5;"/><text fill="#000000" font-family="sans-serif" font-size="14" lengthAdjust="spacing" textLength="195.46" x="169.7124" y="940.6449">Kontrasztar&#225;nyok be&#225;ll&#237;t&#225;sa</text></g><!--entity P3--><g class="entity" data-entity="P3" data-source-line="18" data-uid="ent0014" id="entity_P3"><ellipse cx="267.441" cy="1020.0002" fill="#F1F1F1" rx="112.701" ry="24.9402" style="stroke:#181818;stroke-width:0.5;"/><text fill="#000000" font-family="sans-serif" font-size="14" lengthAdjust="spacing" textLength="182.3896" x="176.2462" y="1020.6023">Kontraszt k&#246;z&#233;ppontj&#225;nak</text><text fill="#000000" font-family="sans-serif" font-size="14" lengthAdjust="spacing" textLength="80.7803" x="227.0509" y="1036.8992">m&#243;dos&#237;t&#225;sa</text></g><!--entity P4--><g class="entity" data-entity="P4" data-source-line="19" data-uid="ent0015" id="entity_P4"><ellipse cx="267.4379" cy="1104.0031" fill="#F1F1F1" rx="100.0879" ry="23.8831" style="stroke:#181818;stroke-width:0.5;"/><text fill="#000000" font-family="sans-serif" font-size="14" lengthAdjust="spacing" textLength="151.5322" x="191.6718" y="1103.7418">Sz&#252;rke&#225;rnyalatos k&#233;p</text><text fill="#000000" font-family="sans-serif" font-size="14" lengthAdjust="spacing" textLength="68.6191" x="233.1283" y="1120.0387">el&#337;n&#233;zete</text></g><!--entity F1--><g class="entity" data-entity="F1" data-source-line="23" data-uid="ent0017" id="entity_F1"><ellipse cx="267.436" cy="493.9972" fill="#F1F1F1" rx="115.886" ry="25.5772" style="stroke:#181818;stroke-width:0.5;"/><text fill="#000000" font-family="sans-serif" font-size="14" lengthAdjust="spacing" textLength="119.875" x="207.4985" y="487.6622">K&#246;rvonalkeres&#233;si</text><text fill="#000000" font-family="sans-serif" font-size="14" lengthAdjust="spacing" textLength="181.248" x="176.812" y="503.959">param&#233;terek v&#225;ltoztat&#225;sa</text></g><!--entity F2--><g class="entity" data-entity="F2" data-source-line="24" data-uid="ent0018" id="entity_F2"><ellipse cx="267.4404" cy="574.0021" fill="#F1F1F1" rx="87.5604" ry="19.9121" style="stroke:#181818;stroke-width:0.5;"/><text fill="#000000" font-family="sans-serif" font-size="14" lengthAdjust="spacing" textLength="148.1963" x="193.3423" y="578.6505">K&#246;rvonalak kijel&#246;l&#233;se</text></g><!--entity F3--><g class="entity" data-entity="F3" data-source-line="25" data-uid="ent0019" id="entity_F3"><ellipse cx="267.4393" cy="651.9959" fill="#F1F1F1" rx="102.6293" ry="22.9259" style="stroke:#181818;stroke-width:0.5;"/><text fill="#000000" font-family="sans-serif" font-size="14" lengthAdjust="spacing" textLength="181.8359" x="176.5214" y="656.6443">Kijel&#246;lt k&#246;rvonalak t&#246;rl&#233;se</text></g><!--entity F4--><g class="entity" data-entity="F4" data-source-line="26" data-uid="ent0020" id="entity_F4"><ellipse cx="267.4444" cy="734.0009" fill="#F1F1F1" rx="108.5544" ry="24.1109" style="stroke:#181818;stroke-width:0.5;"/><text fill="#000000" font-family="sans-serif" font-size="14" lengthAdjust="spacing" textLength="194.749" x="170.0698" y="738.6493">Kijel&#246;lt k&#246;rvonalak ment&#233;se</text></g><!--entity E1--><g class="entity" data-entity="E1" data-source-line="30" data-uid="ent0022" id="entity_E1"><ellipse cx="267.4383" cy="64.9954" fill="#F1F1F1" rx="103.3583" ry="23.6654" style="stroke:#181818;stroke-width:0.5;"/><text fill="#000000" font-family="sans-serif" font-size="14" lengthAdjust="spacing" textLength="158.2861" x="188.2952" y="65.0851">Partvonal automatikus</text><text fill="#000000" font-family="sans-serif" font-size="14" lengthAdjust="spacing" textLength="54.585" x="240.1458" y="81.382">jav&#237;t&#225;sa</text></g><!--entity E2--><g class="entity" data-entity="E2" data-source-line="31" data-uid="ent0023" id="entity_E2"><ellipse cx="267.4364" cy="142.9953" fill="#F1F1F1" rx="83.0764" ry="19.0153" style="stroke:#181818;stroke-width:0.5;"/><text fill="#000000" font-family="sans-serif" font-size="14" lengthAdjust="spacing" textLength="137.874" x="198.4994" y="147.6437">Fjordok l&#233;trehoz&#225;sa</text></g><!--entity E3--><g class="entity" data-entity="E3" data-source-line="32" data-uid="ent0024" id="entity_E3"><ellipse cx="267.4387" cy="220.0017" fill="#F1F1F1" rx="102.1087" ry="22.8217" style="stroke:#181818;stroke-width:0.5;"/><text fill="#000000" font-family="sans-serif" font-size="14" lengthAdjust="spacing" textLength="180.6943" x="177.0915" y="224.6502">Kicsi szigetek l&#233;trehoz&#225;sa</text></g><!--entity E4--><g class="entity" data-entity="E4" data-source-line="33" data-uid="ent0025" id="entity_E4"><ellipse cx="267.441" cy="303.0048" fill="#F1F1F1" rx="88.571" ry="25.2248" style="stroke:#181818;stroke-width:0.5;"/><text fill="#000000" font-family="sans-serif" font-size="14" lengthAdjust="spacing" textLength="125.4941" x="204.6939" y="300.6903">Partvonal jav&#237;t&#225;sa</text><text fill="#000000" font-family="sans-serif" font-size="14" lengthAdjust="spacing" textLength="105.6699" x="214.606" y="316.9872">adott ter&#252;leten</text></g><!--entity E5--><g class="entity" data-entity="E5" data-source-line="34" data-uid="ent0026" id="entity_E5"><ellipse cx="267.4445" cy="377.9989" fill="#F1F1F1" rx="64.2945" ry="15.2589" style="stroke:#181818;stroke-width:0.5;"/><text fill="#000000" font-family="sans-serif" font-size="14" lengthAdjust="spacing" textLength="91.5879" x="221.6505" y="382.6473">K&#233;p let&#246;lt&#233;se</text></g><!--entity U--><g class="entity" data-entity="U" data-source-line="2" data-uid="ent0002" id="entity_U"><ellipse cx="267.4369" cy="1417.0014" fill="#F1F1F1" rx="66.1569" ry="15.6314" style="stroke:#181818;stroke-width:0.5;"/><text fill="#000000" font-family="sans-serif" font-size="14" lengthAdjust="spacing" textLength="96.5166" x="219.1786" y="1421.6498">K&#233;p felt&#246;lt&#233;se</text></g><!--entity User--><g class="entity" data-entity="User" data-source-line="38" data-uid="ent0027" id="entity_User"><ellipse cx="47.2788" cy="1387.35" fill="#F1F1F1" rx="8" ry="8" style="stroke:#181818;stroke-width:0.5;"/><path d="M47.2788,1395.35 L47.2788,1422.35 M34.2788,1403.35 L60.2788,1403.35 M47.2788,1422.35 L34.2788,1437.35 M47.2788,1422.35 L60.2788,1437.35" fill="none" style="stroke:#181818;stroke-width:0.5;"/><text fill="#000000" font-family="sans-serif" font-size="14" lengthAdjust="spacing" textLength="82.5576" x="6" y="1451.8451">Felhaszn&#225;l&#243;</text></g><!--entity User2--><g class="entity" data-entity="User2" data-source-line="39" data-uid="ent0028" id="entity_User2"><ellipse cx="47.2788" cy="948.35" fill="#F1F1F1" rx="8" ry="8" style="stroke:#181818;stroke-width:0.5;"/><path d="M47.2788,956.35 L47.2788,983.35 M34.2788,964.35 L60.2788,964.35 M47.2788,983.35 L34.2788,998.35 M47.2788,983.35 L60.2788,998.35" fill="none" style="stroke:#181818;stroke-width:0.5;"/><text fill="#000000" font-family="sans-serif" font-size="14" lengthAdjust="spacing" textLength="82.5576" x="6" y="1012.8451">Felhaszn&#225;l&#243;</text></g><!--entity User3--><g class="entity" data-entity="User3" data-source-line="40" data-uid="ent0029" id="entity_User3"><ellipse cx="47.2788" cy="583.35" fill="#F1F1F1" rx="8" ry="8" style="stroke:#181818;stroke-width:0.5;"/><path d="M47.2788,591.35 L47.2788,618.35 M34.2788,599.35 L60.2788,599.35 M47.2788,618.35 L34.2788,633.35 M47.2788,618.35 L60.2788,633.35" fill="none" style="stroke:#181818;stroke-width:0.5;"/><text fill="#000000" font-family="sans-serif" font-size="14" lengthAdjust="spacing" textLength="82.5576" x="6" y="647.8451">Felhaszn&#225;l&#243;</text></g><!--entity User1--><g class="entity" data-entity="User1" data-source-line="41" data-uid="ent0030" id="entity_User1"><ellipse cx="47.2788" cy="190.35" fill="#F1F1F1" rx="8" ry="8" style="stroke:#181818;stroke-width:0.5;"/><path d="M47.2788,198.35 L47.2788,225.35 M34.2788,206.35 L60.2788,206.35 M47.2788,225.35 L34.2788,240.35 M47.2788,225.35 L60.2788,240.35" fill="none" style="stroke:#181818;stroke-width:0.5;"/><text fill="#000000" font-family="sans-serif" font-size="14" lengthAdjust="spacing" textLength="82.5576" x="6" y="254.8451">Felhaszn&#225;l&#243;</text></g><!--link User1 to E1--><g class="link" data-entity-1="User1" data-entity-2="E1" data-source-line="43" data-uid="lnk31" id="link_User1_E1"><path d="M66.38,181.53 C79.95,156.62 100.78,125.33 127.56,106 C144.27,93.94 158.7898,87.1364 178.6098,81.1064" fill="none" id="User1-to-E1" style="stroke:#181818;stroke-width:1;"/><polygon fill="#181818" points="184.35,79.36,174.5754,78.1528,179.5665,80.8153,176.9039,85.8064,184.35,79.36" style="stroke:#181818;stroke-width:1;"/></g><!--link User1 to E2--><g class="link" data-entity-1="User1" data-entity-2="E2" data-source-line="44" data-uid="lnk32" id="link_User1_E2"><path d="M88.7,197.58 C100.94,191.35 114.59,184.94 127.56,180 C152.74,170.41 175.5771,163.7769 200.2871,157.6369" fill="none" id="User1-to-E2" style="stroke:#181818;stroke-width:1;"/><polygon fill="#181818" points="206.11,156.19,196.411,154.4784,201.2576,157.3957,198.3402,162.2423,206.11,156.19" style="stroke:#181818;stroke-width:1;"/></g><!--link User1 to E3--><g class="link" data-entity-1="User1" data-entity-2="E3" data-source-line="45" data-uid="lnk33" id="link_User1_E3"><path d="M88.8,220 C110.37,220 131.94,220 158.9,220" fill="none" id="User1-to-E3" style="stroke:#181818;stroke-width:1;"/><polygon fill="#181818" points="164.9,220,155.9,216,159.9,220,155.9,224,164.9,220" style="stroke:#181818;stroke-width:1;"/></g><!--link User1 to E4--><g class="link" data-entity-1="User1" data-entity-2="E4" data-source-line="46" data-uid="lnk34" id="link_User1_E4"><path d="M88.82,242.09 C101.07,248.32 114.69,254.81 127.56,260 C151.55,269.69 172.8402,276.7954 196.6502,283.8954" fill="none" id="User1-to-E4" style="stroke:#181818;stroke-width:1;"/><polygon fill="#181818" points="202.4,285.61,194.9183,279.205,197.6085,284.1812,192.6322,286.8714,202.4,285.61" style="stroke:#181818;stroke-width:1;"/></g><!--link User1 to E5--><g class="link" data-entity-1="User1" data-entity-2="E5" data-source-line="47" data-uid="lnk35" id="link_User1_E5"><path d="M62.97,258.57 C75.78,287.01 97.12,324.37 127.56,346 C149.95,361.91 173.1045,369.0973 198.8745,373.1973" fill="none" id="User1-to-E5" style="stroke:#181818;stroke-width:1;"/><polygon fill="#181818" points="204.8,374.14,196.5403,368.7756,199.8621,373.3544,195.2833,376.6762,204.8,374.14" style="stroke:#181818;stroke-width:1;"/></g><!--link User2 to P1--><g class="link" data-entity-1="User2" data-entity-2="P1" data-source-line="50" data-uid="lnk36" id="link_User2_P1"><path d="M76.71,939.63 C90.45,923.47 108.17,905.73 127.56,894 C146.2,882.72 162.4284,876.2142 183.3684,870.4042" fill="none" id="User2-to-P1" style="stroke:#181818;stroke-width:1;"/><polygon fill="#181818" points="189.15,868.8,179.4082,867.3518,184.332,870.1368,181.5471,875.0606,189.15,868.8" style="stroke:#181818;stroke-width:1;"/></g><!--link User2 to P2--><g class="link" data-entity-1="User2" data-entity-2="P2" data-source-line="51" data-uid="lnk37" id="link_User2_P2"><path d="M88.8,970.2 C115.54,965.05 145.6381,959.2539 178.2181,952.9839" fill="none" id="User2-to-P2" style="stroke:#181818;stroke-width:1;"/><polygon fill="#181818" points="184.11,951.85,174.5162,949.6229,179.2001,952.7949,176.0281,957.4788,184.11,951.85" style="stroke:#181818;stroke-width:1;"/></g><!--link User2 to P3--><g class="link" data-entity-1="User2" data-entity-2="P3" data-source-line="52" data-uid="lnk38" id="link_User2_P3"><path d="M88.8,985.8 C114.8,990.81 143.6484,996.3546 175.5084,1002.4946" fill="none" id="User2-to-P3" style="stroke:#181818;stroke-width:1;"/><polygon fill="#181818" points="181.4,1003.63,173.3196,997.9991,176.4903,1002.6838,171.8057,1005.8546,181.4,1003.63" style="stroke:#181818;stroke-width:1;"/></g><!--link User2 to P4--><g class="link" data-entity-1="User2" data-entity-2="P4" data-source-line="53" data-uid="lnk39" id="link_User2_P4"><path d="M77.18,1016.62 C90.9,1032.63 108.46,1050.18 127.56,1062 C146.41,1073.66 162.9572,1080.5654 184.1172,1086.8354" fill="none" id="User2-to-P4" style="stroke:#181818;stroke-width:1;"/><polygon fill="#181818" points="189.87,1088.54,182.3773,1082.1479,185.076,1087.1195,180.1044,1089.8182,189.87,1088.54" style="stroke:#181818;stroke-width:1;"/></g><!--link User3 to F1--><g class="link" data-entity-1="User3" data-entity-2="F1" data-source-line="56" data-uid="lnk40" id="link_User3_F1"><path d="M81.25,574.69 C94.5,561.22 110.64,546.97 127.56,537 C145.17,526.62 159.8331,520.3311 179.4531,514.0811" fill="none" id="User3-to-F1" style="stroke:#181818;stroke-width:1;"/><polygon fill="#181818" points="185.17,512.26,175.3805,511.1804,180.4059,513.7776,177.8087,518.803,185.17,512.26" style="stroke:#181818;stroke-width:1;"/></g><!--link User3 to F2--><g class="link" data-entity-1="User3" data-entity-2="F2" data-source-line="57" data-uid="lnk41" id="link_User3_F2"><path d="M88.8,605.76 C119.24,600.31 155.7436,593.7857 191.4936,587.3957" fill="none" id="User3-to-F2" style="stroke:#181818;stroke-width:1;"/><polygon fill="#181818" points="197.4,586.34,187.8366,583.986,192.478,587.2198,189.2442,591.8612,197.4,586.34" style="stroke:#181818;stroke-width:1;"/></g><!--link User3 to F3--><g class="link" data-entity-1="User3" data-entity-2="F3" data-source-line="58" data-uid="lnk42" id="link_User3_F3"><path d="M88.8,620.24 C116.16,625.13 147.2836,630.6941 180.4536,636.6241" fill="none" id="User3-to-F3" style="stroke:#181818;stroke-width:1;"/><polygon fill="#181818" points="186.36,637.68,178.2044,632.1586,181.438,636.8001,176.7965,640.0337,186.36,637.68" style="stroke:#181818;stroke-width:1;"/></g><!--link User3 to F4--><g class="link" data-entity-1="User3" data-entity-2="F4" data-source-line="59" data-uid="lnk43" id="link_User3_F4"><path d="M79.45,651.29 C92.93,665.78 109.71,681.33 127.56,692 C145.83,702.92 161.4295,709.4645 181.8195,715.6645" fill="none" id="User3-to-F4" style="stroke:#181818;stroke-width:1;"/><polygon fill="#181818" points="187.56,717.41,180.1129,710.9647,182.7763,715.9554,177.7856,718.6187,187.56,717.41" style="stroke:#181818;stroke-width:1;"/></g><!--link User to U--><g class="link" data-entity-1="User" data-entity-2="U" data-source-line="62" data-uid="lnk44" id="link_User_U"><path d="M88.8,1417 C120.23,1417 158.41,1417 194.85,1417" fill="none" id="User-to-U" style="stroke:#181818;stroke-width:1;"/><polygon fill="#181818" points="200.85,1417,191.85,1413,195.85,1417,191.85,1421,200.85,1417" style="stroke:#181818;stroke-width:1;"/></g><!--link User to UnD--><g class="link" data-entity-1="User" data-entity-2="UnD" data-source-line="63" data-uid="lnk45" id="link_User_UnD"><path d="M88.73,1397.84 C100.98,1392.67 114.62,1387.54 127.56,1384 C264.74,1346.45 423.8584,1329.3691 521.1484,1321.7391" fill="none" id="User-to-UnD" style="stroke:#181818;stroke-width:1;"/><polygon fill="#181818" points="527.13,1321.27,517.8448,1317.9859,522.1453,1321.6609,518.4703,1325.9614,527.13,1321.27" style="stroke:#181818;stroke-width:1;"/></g><!--link User to R--><g class="link" data-entity-1="User" data-entity-2="R" data-source-line="64" data-uid="lnk46" id="link_User_R"><path d="M58.33,1378.57 C69.42,1344.08 90.77,1294.88 127.56,1268 C253.99,1175.62 441.7061,1170.2495 540.9861,1174.7295" fill="none" id="User-to-R" style="stroke:#181818;stroke-width:1;"/><polygon fill="#181818" points="546.98,1175,538.1695,1170.5984,541.9851,1174.7746,537.8088,1178.5902,546.98,1175" style="stroke:#181818;stroke-width:1;"/></g><!--link User to D--><g class="link" data-entity-1="User" data-entity-2="D" data-source-line="65" data-uid="lnk47" id="link_User_D"><path d="M75.48,1378.62 C89.22,1362.05 107.28,1343.98 127.56,1333 C263.89,1259.18 444.4405,1246.4277 540.9005,1245.1777" fill="none" id="User-to-D" style="stroke:#181818;stroke-width:1;"/><polygon fill="#181818" points="546.9,1245.1,537.8489,1241.217,541.9004,1245.1648,537.9526,1249.2163,546.9,1245.1" style="stroke:#181818;stroke-width:1;"/></g><!--link User to P--><g class="link" data-entity-1="User" data-entity-2="P" data-source-line="66" data-uid="lnk48" id="link_User_P"><path d="M89.06,1436.64 C101.2,1441.75 114.7,1446.73 127.56,1450 C283.38,1489.59 469.0911,1497.8243 556.6911,1499.5143" fill="none" id="User-to-P" style="stroke:#181818;stroke-width:1;"/><polygon fill="#181818" points="562.69,1499.63,553.7688,1495.4571,557.6909,1499.5336,553.6145,1503.4557,562.69,1499.63" style="stroke:#181818;stroke-width:1;"/></g><!--link User to F--><g class="link" data-entity-1="User" data-entity-2="F" data-source-line="67" data-uid="lnk49" id="link_User_F"><path d="M56.1,1455.58 C65.94,1493.45 86.73,1549.69 127.56,1579 C256.15,1671.33 449.0214,1663.0033 546.5414,1651.4933" fill="none" id="User-to-F" style="stroke:#181818;stroke-width:1;"/><polygon fill="#181818" points="552.5,1650.79,543.0932,1647.8725,547.5345,1651.3761,544.0309,1655.8173,552.5,1650.79" style="stroke:#181818;stroke-width:1;"/></g><!--link User to E--><g class="link" data-entity-1="User" data-entity-2="E" data-source-line="68" data-uid="lnk50" id="link_User_E"><path d="M75.41,1455.22 C89.14,1471.66 107.2,1489.48 127.56,1500 C262.48,1569.76 439.2115,1576.7724 536.6415,1574.6224" fill="none" id="User-to-E" style="stroke:#181818;stroke-width:1;"/><polygon fill="#181818" points="542.64,1574.49,533.5539,1570.6895,537.6412,1574.6003,533.7304,1578.6876,542.64,1574.49" style="stroke:#181818;stroke-width:1;"/></g><!--link U to Editors--><g class="link" data-entity-1="U" data-entity-2="Editors" data-source-line="70" data-uid="lnk51" id="link_U_Editors"><path d="M320.25,1426.73 C348.29,1431.58 383.59,1437.04 415.33,1440 C436.5875,1441.9825 459.1988,1443.3525 481.2102,1444.2914 C492.2159,1444.7609 503.0716,1445.1225 513.5332,1445.3991 C514.8409,1445.4337 516.1424,1445.4669 517.4373,1445.4989 C517.761,1445.5069 512.0861,1445.3693 512.409,1445.3772" fill="none" id="U-to-Editors" style="stroke:#181818;stroke-width:1;stroke-dasharray:7,7;"/><polygon fill="#181818" points="518.4072,1445.5226,509.5069,1441.3056,513.4087,1445.4014,509.3129,1449.3033,518.4072,1445.5226" style="stroke:#181818;stroke-width:1;"/><text fill="#000000" font-family="sans-serif" font-size="13" lengthAdjust="spacing" textLength="59.7632" x="416.33" y="1436.0669">precedes</text></g><!--link U to UA--><g class="link" data-entity-1="U" data-entity-2="UA" data-source-line="71" data-uid="lnk52" id="link_U_UA"><path d="M325.69,1409.3 C373.61,1402.855 443.34,1393.475 501.8025,1385.6113 C516.4181,1383.6453 530.3295,1381.7741 543.0199,1380.0673 C544.6062,1379.8539 546.1734,1379.6431 547.7205,1379.4351 C548.4941,1379.331 543.3162,1380.0274 544.0796,1379.9248" fill="none" id="U-to-UA" style="stroke:#181818;stroke-width:1;stroke-dasharray:7,7;"/><polygon fill="#181818" points="550.026,1379.125,540.5731,1376.3603,545.0706,1379.7915,541.6395,1384.2889,550.026,1379.125" style="stroke:#181818;stroke-width:1;"/><text fill="#000000" font-family="sans-serif" font-size="13" lengthAdjust="spacing" textLength="59.7632" x="416.33" y="1386.0669">precedes</text></g><!--SRC=[XLIzQkD04Exr58Ehc2C1oqwJ8X0I2uvhH88FBhZPaoQslEjTiRisH4SU8e_WqiLL0LVfbhpNZVviIN5y0YE- -Vayyyre13vPi0fqCfjRY1EDaKsKz5O68sOGpYPzO0PwFzmsXISKrktejpNOyr8MSJP3w4qCQc15dkdbqPERFnxGSo2HToNDpyIOZAsLT1i3PxTMYs-F_Lux-BuC_MwMRckhe5_TeBj6MG8RLRqSwdh8K7CqcVruvKLTupYnIfkokBnJ9cS28IoeGesfLX4Qq-luWy8V93A6MoMjMkbF8UCYPAnLZ1J3Z1M9H8fw0S_R5tJuXuuyuQ3ivf4j8kDsdAFCku7Vw3P2kB-Mr68T0KA_Ke0gqeoQPDfjvBFYfxE6dIpWRfUHY2aP5aJ0-5GktLkip1S4evBW8NFl9AxRQFdC1BFA4DCsdKeK7w_IRJEqnJ0EqsZhbvFabjhGKIGOrFFTQTeM9ZXgDAH9CfKfqonV3R9mM5ElLb7tnueD_0uBuy2J1GfQbt9Rsk6rE5L88Su-aNPC7yqQdSfQbgFiQF5fKOhjp8q7MqUHSQL8oBGjo86jh5eoc_2LcSe5MnyVsBZI85We7TDsK0jMurnbnsBt0aGc0PCbCvhYVr96tR8EbKmbYvMbyuBQlTD7YhARVFdrL-nvT56KXgi0nPmsbIw6S6zNnNcXUtFQwvzs3q-x1vvNlE3y_BeGlWNzDXosuQWDB_jUIUQNXh0Ygw7VXiCs7DNPmz8GLDarzDjms8Rxx19F-ar01xa1xvkWvGcR86Y2CT5FuEBYkZwhS0KfNKICqLIEoKt3zWy0]--></g></svg>