<svg xmlns="http://www.w3.org/2000/svg" xmlns:xlink="http://www.w3.org/1999/xlink" contentStyleType="text/css" data-diagram-type="DESCRIPTION" height="639px" preserveAspectRatio="none" style="width:342px;height:639px;background:#FFFFFF;" version="1.1" viewBox="0 0 342 639" width="342px" zoomAndPan="magnify"><defs/><g><!--cluster Preprocess--><g class="cluster" data-entity="Preprocess" data-source-line="3" data-uid="ent0002" id="cluster_Preprocess"><path d="M135.06,6 L223.7241,6 A3.75,3.75 0 0 1 226.2241,8.5 L233.2241,28.2969 L332.71,28.2969 A2.5,2.5 0 0 1 335.21,30.7969 L335.21,629.5 A2.5,2.5 0 0 1 332.71,632 L135.06,632 A2.5,2.5 0 0 1 132.56,629.5 L132.56,8.5 A2.5,2.5 0 0 1 135.06,6" fill="none" style="stroke:#000000;stroke-width:1.5;"/><line style="stroke:#000000;stroke-width:1.5;" x1="132.56" x2="233.2241" y1="28.2969" y2="28.2969"/><text fill="#000000" font-family="sans-serif" font-size="14" font-weight="bold" lengthAdjust="spacing" textLength="87.6641" x="136.56" y="20.9951">Preprocess</text></g><!--entity P1--><g class="entity" data-entity="P1" data-source-line="4" data-uid="ent0003" id="entity_P1"><ellipse cx="233.884" cy="590.9957" fill="#F1F1F1" rx="69.514" ry="24.5257" style="stroke:#181818;stroke-width:0.5;"/><text fill="#000000" font-family="sans-serif" font-size="14" lengthAdjust="spacing" textLength="100.7139" x="183.527" y="589.7296">Zajcs&#246;kkent&#233;s</text><text fill="#000000" font-family="sans-serif" font-size="14" lengthAdjust="spacing" textLength="67.6895" x="200.0392" y="606.0264">be&#225;ll&#237;t&#225;sa</text></g><!--entity P2--><g class="entity" data-entity="P2" data-source-line="5" data-uid="ent0004" id="entity_P2"><ellipse cx="233.8781" cy="507.0004" fill="#F1F1F1" rx="82.9481" ry="24.1304" style="stroke:#181818;stroke-width:0.5;"/><text fill="#000000" font-family="sans-serif" font-size="14" lengthAdjust="spacing" textLength="123.3203" x="172.218" y="506.3471">Kontrasztar&#225;nyok</text><text fill="#000000" font-family="sans-serif" font-size="14" lengthAdjust="spacing" textLength="67.6895" x="200.0334" y="522.644">be&#225;ll&#237;t&#225;sa</text></g><!--entity P3--><g class="entity" data-entity="P3" data-source-line="6" data-uid="ent0005" id="entity_P3"><ellipse cx="233.8809" cy="415.0005" fill="#F1F1F1" rx="69.9009" ry="32.3705" style="stroke:#181818;stroke-width:0.5;"/><text fill="#000000" font-family="sans-serif" font-size="14" lengthAdjust="spacing" textLength="66.5752" x="200.5933" y="402.3206">Kontraszt</text><text fill="#000000" font-family="sans-serif" font-size="14" lengthAdjust="spacing" textLength="111.3643" x="178.1988" y="418.6175">k&#246;z&#233;ppontj&#225;nak</text><text fill="#000000" font-family="sans-serif" font-size="14" lengthAdjust="spacing" textLength="80.7803" x="193.4908" y="434.9144">m&#243;dos&#237;t&#225;sa</text></g><!--entity P4--><g class="entity" data-entity="P4" data-source-line="7" data-uid="ent0006" id="entity_P4"><ellipse cx="233.8846" cy="322.9991" fill="#F1F1F1" rx="85.3246" ry="25.0891" style="stroke:#181818;stroke-width:0.5;"/><text fill="#000000" font-family="sans-serif" font-size="14" lengthAdjust="spacing" textLength="121.4746" x="173.1473" y="320.8849">Sz&#252;rke&#225;rnyalatos</text><text fill="#000000" font-family="sans-serif" font-size="14" lengthAdjust="spacing" textLength="98.6768" x="184.5462" y="337.1818">k&#233;p el&#337;n&#233;zete</text></g><!--entity P5--><g class="entity" data-entity="P5" data-source-line="8" data-uid="ent0007" id="entity_P5"><ellipse cx="233.8801" cy="238.0011" fill="#F1F1F1" rx="77.3201" ry="24.7211" style="stroke:#181818;stroke-width:0.5;"/><text fill="#000000" font-family="sans-serif" font-size="14" lengthAdjust="spacing" textLength="111.5215" x="178.1194" y="236.4377">Feh&#233;regyens&#250;ly</text><text fill="#000000" font-family="sans-serif" font-size="14" lengthAdjust="spacing" textLength="80.7803" x="193.49" y="252.7345">m&#243;dos&#237;t&#225;sa</text></g><!--entity P6--><g class="entity" data-entity="P6" data-source-line="9" data-uid="ent0008" id="entity_P6"><ellipse cx="233.8792" cy="159.9978" fill="#F1F1F1" rx="78.8892" ry="18.1778" style="stroke:#181818;stroke-width:0.5;"/><text fill="#000000" font-family="sans-serif" font-size="14" lengthAdjust="spacing" textLength="128.0508" x="169.8538" y="164.6463">Sz&#237;nek korrig&#225;l&#225;sa</text></g><!--entity P7--><g class="entity" data-entity="P7" data-source-line="10" data-uid="ent0009" id="entity_P7"><ellipse cx="233.8751" cy="74.0045" fill="#F1F1F1" rx="71.3951" ry="32.5745" style="stroke:#181818;stroke-width:0.5;"/><text fill="#000000" font-family="sans-serif" font-size="14" lengthAdjust="spacing" textLength="77.8818" x="194.9342" y="62.4884">Geometriai</text><text fill="#000000" font-family="sans-serif" font-size="14" lengthAdjust="spacing" textLength="113.0664" x="177.3419" y="78.7852">transzform&#225;ci&#243;k</text><text fill="#000000" font-family="sans-serif" font-size="14" lengthAdjust="spacing" textLength="76.084" x="195.8331" y="95.0821">haszn&#225;lata</text></g><!--entity User1--><g class="entity" data-entity="User1" data-source-line="13" data-uid="ent0010" id="entity_User1"><ellipse cx="47.2788" cy="293.35" fill="#F1F1F1" rx="8" ry="8" style="stroke:#181818;stroke-width:0.5;"/><path d="M47.2788,301.35 L47.2788,328.35 M34.2788,309.35 L60.2788,309.35 M47.2788,328.35 L34.2788,343.35 M47.2788,328.35 L60.2788,343.35" fill="none" style="stroke:#181818;stroke-width:0.5;"/><text fill="#000000" font-family="sans-serif" font-size="14" lengthAdjust="spacing" textLength="82.5576" x="6" y="357.8451">Felhaszn&#225;l&#243;</text></g><!--link User1 to P1--><g class="link" data-entity-1="User1" data-entity-2="P1" data-source-line="16" data-uid="lnk11" id="link_User1_P1"><path d="M51.36,361.26 C57.31,410.74 74.61,496.78 124.56,549 C137.73,562.77 150.2853,570.0939 168.0153,576.3839" fill="none" id="User1-to-P1" style="stroke:#181818;stroke-width:1;"/><polygon fill="#181818" points="173.67,578.39,166.5254,571.6111,168.9578,576.7183,163.8506,579.1507,173.67,578.39" style="stroke:#181818;stroke-width:1;"/></g><!--link User1 to P2--><g class="link" data-entity-1="User1" data-entity-2="P2" data-source-line="17" data-uid="lnk12" id="link_User1_P2"><path d="M60.51,361.58 C72.32,393.23 93.11,437.2 124.56,465 C137.55,476.49 148.4412,482.8429 164.6112,489.0729" fill="none" id="User1-to-P2" style="stroke:#181818;stroke-width:1;"/><polygon fill="#181818" points="170.21,491.23,163.2498,484.2618,165.5443,489.4324,160.3737,491.7269,170.21,491.23" style="stroke:#181818;stroke-width:1;"/></g><!--link User1 to P3--><g class="link" data-entity-1="User1" data-entity-2="P3" data-source-line="18" data-uid="lnk13" id="link_User1_P3"><path d="M88.69,346.66 C100.17,353.14 112.76,360.02 124.56,366 C142.97,375.33 158.0512,382.404 176.2612,390.534" fill="none" id="User1-to-P3" style="stroke:#181818;stroke-width:1;"/><polygon fill="#181818" points="181.74,392.98,175.1525,385.6584,177.1744,390.9416,171.8912,392.9635,181.74,392.98" style="stroke:#181818;stroke-width:1;"/></g><!--link User1 to P4--><g class="link" data-entity-1="User1" data-entity-2="P4" data-source-line="19" data-uid="lnk14" id="link_User1_P4"><path d="M88.79,323 C106.3,323 121.49,323 142.17,323" fill="none" id="User1-to-P4" style="stroke:#181818;stroke-width:1;"/><polygon fill="#181818" points="148.17,323,139.17,319,143.17,323,139.17,327,148.17,323" style="stroke:#181818;stroke-width:1;"/></g><!--link User1 to P5--><g class="link" data-entity-1="User1" data-entity-2="P5" data-source-line="20" data-uid="lnk15" id="link_User1_P5"><path d="M88.88,298.69 C100.25,292.27 112.74,285.59 124.56,280 C142.61,271.47 157.2905,265.3791 175.3905,258.5091" fill="none" id="User1-to-P5" style="stroke:#181818;stroke-width:1;"/><polygon fill="#181818" points="181,256.38,171.1663,255.834,176.3254,258.1543,174.0051,263.3134,181,256.38" style="stroke:#181818;stroke-width:1;"/></g><!--link User1 to P6--><g class="link" data-entity-1="User1" data-entity-2="P6" data-source-line="21" data-uid="lnk16" id="link_User1_P6"><path d="M62.71,284.64 C75.13,256.44 95.65,219.16 124.56,196 C138.4,184.91 150.0862,179.0109 166.8762,173.6309" fill="none" id="User1-to-P6" style="stroke:#181818;stroke-width:1;"/><polygon fill="#181818" points="172.59,171.8,162.7987,170.7371,167.8285,173.3257,165.2398,178.3555,172.59,171.8" style="stroke:#181818;stroke-width:1;"/></g><!--link User1 to P7--><g class="link" data-entity-1="User1" data-entity-2="P7" data-source-line="22" data-uid="lnk17" id="link_User1_P7"><path d="M54.07,284.71 C62.51,240.91 82.09,169.39 124.56,124 C137.79,109.86 150.3057,101.7681 167.8457,94.1581" fill="none" id="User1-to-P7" style="stroke:#181818;stroke-width:1;"/><polygon fill="#181818" points="173.35,91.77,163.5015,91.6827,168.7631,93.7601,166.6857,99.0217,173.35,91.77" style="stroke:#181818;stroke-width:1;"/></g><!--SRC=[XP4zQWCn48LxdKAuYWiN_WSNAPqYZI6a2MucydYzrbfQPfHYD-GGESAMMxWok0ZfXjmhifS4rYHOZNZIlE_nf0pNGGUlAKqsGQzIGXDIxvJAmLX8K2y8S_86cL-LZkk5qG2ZlbdqknfOTvvWQrYErg8BKlFIFQDKMIRx81L3vy8qQ4pttWK2BWEGLAxmzefjU65REYl7KkeyZoVRY818sCbXvVaVmgWXF9JoIJP6aIiWW-3vXAfpZTdNkvEwn82Nrd5ZdUD6QiAaGCVoaHLN0YU_WNk7LbjFyOrZnRzcfyti7VeT1aeXNPvwEYxNddPIcLGEiTycDdUH0242tfG24ppfsHopdnivp4wWHqRgAwNEk-xrRi-_rPA3jXosvQWjnsqvQSjfzni0]--></g></svg>